<?xml version="1.0" encoding="UTF-8"?>
<!DOCTYPE svg PUBLIC "-//W3C//DTD SVG 1.1//EN" "http://www.w3.org/Graphics/SVG/1.1/DTD/svg11.dtd">
<!-- Creator: CorelDRAW X7 -->
<svg xmlns="http://www.w3.org/2000/svg" xml:space="preserve" width="5.40261in" height="7.16667in" version="1.1" style="shape-rendering:geometricPrecision; text-rendering:geometricPrecision; image-rendering:optimizeQuality; fill-rule:evenodd; clip-rule:evenodd"
viewBox="0 0 1292 1714"
 xmlns:xlink="http://www.w3.org/1999/xlink">
 <defs>
  <style type="text/css">
   <![CDATA[
    .fil2 {fill:#4E1586}
    .fil0 {fill:#6A391B}
    .fil1 {fill:white}
   ]]>
  </style>
 </defs>
 <g id="Layer_x0020_1">
  <metadata id="CorelCorpID_0Corel-Layer"/>
  <g id="_2009934428240">
   <path class="fil0" d="M625 1661c-140,-163 -597,-718 -597,-1015 0,-341 277,-618 618,-618 342,0 619,277 619,618 0,297 -458,852 -597,1015l-22 25 -21 -25zm21 -1436c-217,0 -393,176 -393,393 0,218 176,394 393,394 217,0 394,-176 394,-394 -1,-217 -177,-393 -394,-393zm0 0z" data-original="#78B9EB" data-old_color="#ffffff"/>
   <g>
    <path class="fil0" d="M646 0c-357,1 -645,289 -646,646 0,348 600,1029 625,1058 5,7 13,10 21,10 8,0 16,-3 21,-10 26,-29 625,-710 625,-1058 0,-357 -289,-645 -646,-646zm0 56c326,0 590,264 590,590 0,292 -482,872 -590,997 -107,-125 -590,-705 -590,-997 0,-326 264,-590 590,-590zm0 0z" data-original="#000000" data-old_color="#ffffff"/>
    <path class="fil0" d="M646 197c-232,0 -421,189 -421,421 0,233 189,422 421,422 233,0 421,-189 421,-422 0,-232 -188,-421 -421,-421zm0 787c-202,0 -365,-164 -365,-366 0,-201 163,-365 365,-365 202,0 366,164 366,365 -1,202 -164,365 -366,366zm0 0z" data-original="#000000" data-old_color="#ffffff"/>
    <path class="fil0" d="M590 590l112 0 0 56 -112 0 0 -56zm0 0z" data-original="#000000" data-old_color="#ffffff"/>
    <path class="fil0" d="M731 590l56 0 0 56 -56 0 0 -56zm0 0z" data-original="#000000" data-old_color="#ffffff"/>
    <path class="fil0" d="M506 590l56 0 0 56 -56 0 0 -56zm0 0z" data-original="#000000" data-old_color="#ffffff"/>
   </g>
  </g>
  <circle class="fil1" cx="646" cy="618" r="461"/>
  <g id="_2550893682992">
   <path class="fil2" d="M491 522c7,-6 13,-13 16,-22 -4,-2 -9,-3 -15,-6 -26,-11 -45,-28 -42,-37 2,9 22,21 48,28 19,5 37,6 48,3 4,-1 7,-3 8,-6 3,-10 -18,-24 -47,-31 -1,-1 -2,-1 -3,-1 -7,-12 -19,-22 -34,-26 -30,-8 -61,10 -69,40 -3,12 -2,23 2,34l82 21c2,1 4,2 6,3z"/>
   <path class="fil2" d="M714 547c-4,0 -8,2 -8,2l-28 14 0 34 62 -31c-7,-6 -15,-13 -20,-17 -1,-1 -3,-2 -6,-2z"/>
   <path class="fil2" d="M631 557l25 -12 0 -22 22 0 0 12 17 -9c1,0 9,-3 19,-3 8,0 16,2 22,7 12,9 37,32 38,32l5 5 -16 19 -6 -5 -1 -1 -78 38 0 36 -22 0 0 -26 -25 13 0 294 327 0 0 -630 -327 0 0 252z"/>
   <polygon class="fil2" points="631,619 656,607 656,573 631,585 "/>
   <path class="fil2" d="M762 575l7 -7c-1,-1 -26,-23 -38,-32 -13,-11 -32,-3 -32,-3l-120 58 0 -2 -37 17 1 8c0,0 1,-1 2,-1 3,-1 6,-2 9,-2 1,0 1,0 2,0l7 -3 1 5c6,3 12,8 14,15 3,7 3,14 0,20 -3,6 -8,11 -15,14 -6,2 -11,3 -17,4l1 10 36 -17 0 -3 174 -85c3,3 5,4 5,4zm-179 76l-3 -49 123 -60c0,0 13,-6 22,2 7,5 20,17 29,24l-171 83z"/>
   <path class="fil2" d="M573 630c-4,-10 -16,-15 -26,-11 -8,3 -13,3 -15,2 -5,-3 -9,-22 -12,-34 -5,-22 -11,-47 -30,-58 -2,-2 -4,-3 -7,-4l-93 -24c-1,-1 -2,-1 -2,-1 -20,-4 -42,5 -57,25 -10,13 -36,57 -2,128l-5 19c-4,9 -3,20 2,29l50 83 -69 107c-9,14 -5,33 10,43 5,3 11,5 17,5 10,0 20,-5 26,-15l79 -122c7,-10 7,-23 1,-33l-5 -8 42 38 -30 102c-5,17 5,34 21,39 3,1 6,1 9,1 13,0 26,-8 30,-22l36 -122c3,-11 0,-24 -9,-32l-76 -68 25 -95c4,21 11,43 31,54 6,4 13,5 21,5 8,0 17,-1 26,-5 10,-4 16,-15 12,-26z"/>
   <path class="fil2" d="M339 430l23 0 0 -24 -52 0 0 19 -23 0 0 24 52 0 0 -19zm-24 -19l42 0 0 14 -18 0 -24 0 0 -14zm19 33l-42 0 0 -14 18 0 24 0 0 14z"/>
   <path class="fil2" d="M530 349l-23 0 0 24 52 0 0 -19 23 0 0 -25 -52 0 0 20zm24 19l-42 0 0 -14 18 0 24 0 0 14zm-19 -34l42 0 0 15 -18 0 -24 0 0 -15z"/>
   <path class="fil2" d="M1040 396l-47 0 0 24 24 0 0 20 52 0 0 -20 23 0 0 -24 -47 0 -5 0 0 0zm-42 19l0 -14 42 0 0 14 -23 0 -19 0zm66 20l-42 0 0 -15 18 0 5 0 19 0 0 15zm23 -20l-18 0 -24 0 0 -14 42 0 0 14z"/>
  </g>
 </g>
</svg>
