<?xml version="1.0" encoding="UTF-8"?>
<!DOCTYPE svg PUBLIC "-//W3C//DTD SVG 1.1//EN" "http://www.w3.org/Graphics/SVG/1.1/DTD/svg11.dtd">
<!-- Creator: CorelDRAW X7 -->
<svg xmlns="http://www.w3.org/2000/svg" xml:space="preserve" width="5.40261in" height="7.16667in" version="1.1" style="shape-rendering:geometricPrecision; text-rendering:geometricPrecision; image-rendering:optimizeQuality; fill-rule:evenodd; clip-rule:evenodd"
viewBox="0 0 1292 1714"
 xmlns:xlink="http://www.w3.org/1999/xlink">
 <defs>
  <style type="text/css">
   <![CDATA[
    .fil11 {fill:#183D4C}
    .fil6 {fill:#1D4559}
    .fil8 {fill:#282C3A}
    .fil5 {fill:#2D5872}
    .fil0 {fill:#C4C38B}
    .fil10 {fill:#EAA200}
    .fil4 {fill:#EDEDED}
    .fil3 {fill:#F4D3A6}
    .fil7 {fill:#FF6D3A}
    .fil9 {fill:#FFBF14}
    .fil2 {fill:#FFE7CF}
    .fil1 {fill:white}
   ]]>
  </style>
 </defs>
 <g id="Layer_x0020_1">
  <metadata id="CorelCorpID_0Corel-Layer"/>
  <g id="_2009934428240">
   <path class="fil0" d="M625 1661c-140,-163 -597,-718 -597,-1015 0,-341 277,-618 618,-618 342,0 619,277 619,618 0,297 -458,852 -597,1015l-22 25 -21 -25zm21 -1436c-217,0 -393,176 -393,393 0,218 176,394 393,394 217,0 394,-176 394,-394 -1,-217 -177,-393 -394,-393zm0 0z" data-original="#78B9EB" data-old_color="#ffffff"/>
   <g>
    <path class="fil0" d="M646 0c-357,1 -645,289 -646,646 0,348 600,1029 625,1058 5,7 13,10 21,10 8,0 16,-3 21,-10 26,-29 625,-710 625,-1058 0,-357 -289,-645 -646,-646zm0 56c326,0 590,264 590,590 0,292 -482,872 -590,997 -107,-125 -590,-705 -590,-997 0,-326 264,-590 590,-590zm0 0z" data-original="#000000" data-old_color="#ffffff"/>
    <path class="fil0" d="M646 197c-232,0 -421,189 -421,421 0,233 189,422 421,422 233,0 421,-189 421,-422 0,-232 -188,-421 -421,-421zm0 787c-202,0 -365,-164 -365,-366 0,-201 163,-365 365,-365 202,0 366,164 366,365 -1,202 -164,365 -366,366zm0 0z" data-original="#000000" data-old_color="#ffffff"/>
    <path class="fil0" d="M590 590l112 0 0 56 -112 0 0 -56zm0 0z" data-original="#000000" data-old_color="#ffffff"/>
    <path class="fil0" d="M731 590l56 0 0 56 -56 0 0 -56zm0 0z" data-original="#000000" data-old_color="#ffffff"/>
    <path class="fil0" d="M506 590l56 0 0 56 -56 0 0 -56zm0 0z" data-original="#000000" data-old_color="#ffffff"/>
   </g>
  </g>
  <circle class="fil1" cx="646" cy="618" r="461"/>
  <g id="commend.svg">
   <path class="fil2" d="M697 750l72 -68 -28 -5c-14,-3 -24,-19 -24,-33l0 -63 -67 0 0 0 -67 0 0 63c0,14 -10,30 -24,33l-28 5 72 68c26,25 68,25 94,0z"/>
   <path class="fil3" d="M655 581l0 89c0,14 10,30 24,33l57 11 33 -32 -28 -5c-14,-3 -24,-19 -24,-33l0 -63 -62 0z"/>
   <polygon class="fil4" points="641,894 641,894 "/>
   <path class="fil5" d="M849 688l-102 -19c-4,-1 -8,0 -11,3l-86 64 -86 -64c-3,-3 -7,-4 -11,-3l-102 19c-51,15 -86,62 -86,116l0 122c0,14 11,25 25,25l520 0c14,0 25,-11 25,-25l0 -122c0,-54 -35,-101 -86,-116z"/>
   <g>
    <path class="fil6" d="M849 688l-102 -19c-4,-1 -8,0 -11,3l-45 33 97 18c51,15 86,30 86,83l0 145 36 0c14,0 25,-11 25,-25l0 -122c0,-54 -35,-101 -86,-116z"/>
    <path class="fil6" d="M524 675l56 78c4,5 12,8 18,5l52 -22 -86 -64c-3,-3 -7,-4 -11,-3l-29 6z"/>
    <path class="fil6" d="M776 675l-56 78c-4,5 -12,8 -18,5l-52 -22 86 -64c3,-3 7,-4 11,-3l29 6z"/>
   </g>
   <path class="fil5" d="M650 204c-108,0 -196,75 -196,117 0,42 88,73 196,73 108,0 196,-31 196,-73 0,-42 -88,-117 -196,-117z"/>
   <path class="fil6" d="M650 204c-11,0 -21,1 -31,2 94,12 165,77 165,115 0,38 -71,67 -165,72 10,0 20,1 31,1 108,0 196,-31 196,-73 0,-42 -88,-117 -196,-117z"/>
   <path class="fil2" d="M790 439l-9 0 0 -10 0 -25c0,-36 -15,-70 -41,-93 -21,-18 -159,-18 -180,0 -27,23 -41,57 -41,93l0 25 0 10 -9 0c-13,0 -24,11 -24,24l0 26c0,13 11,24 24,24l9 0c1,34 15,67 41,90 21,18 51,34 90,34 39,0 69,-16 90,-34 26,-23 40,-56 41,-90l9 0c13,0 24,-11 24,-24l0 -26c0,-13 -11,-24 -24,-24z"/>
   <path class="fil3" d="M790 439l-9 0 0 -10 0 -25c0,-36 -15,-70 -41,-93 -14,-12 -73,-16 -120,-13 28,2 51,6 59,13 27,23 41,57 41,93l0 25 0 84c0,34 -15,67 -41,90 -15,13 -35,25 -59,31 9,2 19,3 30,3 39,0 69,-16 90,-34 26,-23 40,-56 41,-90l9 0c13,0 24,-11 24,-24l0 -26c0,-13 -11,-24 -24,-24z"/>
   <path class="fil7" d="M499 360l0 82c0,0 20,-1 33,12 3,3 7,1 7,-3l0 -60 222 0 0 60c0,4 4,6 7,3 13,-13 33,-12 33,-12l0 -82c0,-50 -302,-50 -302,0z"/>
   <path class="fil5" d="M650 427c-83,0 -151,-26 -151,-58l302 0c0,32 -68,58 -151,58z"/>
   <path class="fil6" d="M499 329l0 40 302 0 0 -40c0,-11 -7,-20 -18,-23 -28,-7 -85,-19 -140,-19 -51,0 -101,12 -127,19 -10,3 -17,12 -17,23z"/>
   <g>
    <polygon class="fil8" points="650,736 609,753 633,781 667,781 691,753 "/>
    <polygon class="fil8" points="667,781 650,781 633,781 609,951 691,951 "/>
   </g>
   <g>
    <path class="fil6" d="M804 894l-60 0c-3,0 -7,-3 -7,-7l0 -32c0,-3 4,-7 7,-7l60 0c4,0 7,4 7,7l0 32c0,4 -3,7 -7,7z"/>
    <path class="fil6" d="M555 894l-59 0c-4,0 -7,-3 -7,-7l0 -32c0,-3 3,-7 7,-7l59 0c4,0 8,4 8,7l0 32c0,4 -4,7 -8,7z"/>
   </g>
   <path class="fil9" d="M388 763c11,9 27,7 36,-4l13 -15c9,-12 7,-28 -4,-37l-9 -7c-21,13 -38,31 -48,53l12 10z"/>
   <path class="fil10" d="M924 753c-10,-22 -27,-40 -48,-53l-9 7c-11,9 -13,25 -4,37l13 15c9,11 25,13 36,4l12 -10z"/>
   <g>
    <path class="fil11" d="M853 837c-6,0 -11,5 -11,11l0 103 23 0 0 -103c0,-6 -5,-11 -12,-11z"/>
    <path class="fil11" d="M447 837c-7,0 -12,5 -12,11l0 103 23 0 0 -103c0,-6 -5,-11 -11,-11z"/>
   </g>
   <g>
   </g>
   <g>
   </g>
   <g>
   </g>
   <g>
   </g>
   <g>
   </g>
   <g>
   </g>
   <g>
   </g>
   <g>
   </g>
   <g>
   </g>
   <g>
   </g>
   <g>
   </g>
   <g>
   </g>
   <g>
   </g>
   <g>
   </g>
   <g>
   </g>
  </g>
 </g>
</svg>
