<?xml version="1.0" encoding="UTF-8"?>
<!DOCTYPE svg PUBLIC "-//W3C//DTD SVG 1.1//EN" "http://www.w3.org/Graphics/SVG/1.1/DTD/svg11.dtd">
<!-- Creator: CorelDRAW X7 -->
<svg xmlns="http://www.w3.org/2000/svg" xml:space="preserve" width="5.40261in" height="7.16667in" version="1.1" style="shape-rendering:geometricPrecision; text-rendering:geometricPrecision; image-rendering:optimizeQuality; fill-rule:evenodd; clip-rule:evenodd"
viewBox="0 0 1292 1714"
 xmlns:xlink="http://www.w3.org/1999/xlink">
 <defs>
  <style type="text/css">
   <![CDATA[
    .fil2 {fill:#84CE00}
    .fil0 {fill:#F42494}
    .fil1 {fill:white}
   ]]>
  </style>
 </defs>
 <g id="Layer_x0020_1">
  <metadata id="CorelCorpID_0Corel-Layer"/>
  <g id="_2009934428240">
   <path class="fil0" d="M625 1661c-140,-163 -597,-718 -597,-1015 0,-341 277,-618 618,-618 342,0 619,277 619,618 0,297 -458,852 -597,1015l-22 25 -21 -25zm21 -1436c-217,0 -393,176 -393,393 0,218 176,394 393,394 217,0 394,-176 394,-394 -1,-217 -177,-393 -394,-393zm0 0z" data-original="#78B9EB" data-old_color="#ffffff"/>
   <g>
    <path class="fil0" d="M646 0c-357,1 -645,289 -646,646 0,348 600,1029 625,1058 5,7 13,10 21,10 8,0 16,-3 21,-10 26,-29 625,-710 625,-1058 0,-357 -289,-645 -646,-646zm0 56c326,0 590,264 590,590 0,292 -482,872 -590,997 -107,-125 -590,-705 -590,-997 0,-326 264,-590 590,-590zm0 0z" data-original="#000000" data-old_color="#ffffff"/>
    <path class="fil0" d="M646 197c-232,0 -421,189 -421,421 0,233 189,422 421,422 233,0 421,-189 421,-422 0,-232 -188,-421 -421,-421zm0 787c-202,0 -365,-164 -365,-366 0,-201 163,-365 365,-365 202,0 366,164 366,365 -1,202 -164,365 -366,366zm0 0z" data-original="#000000" data-old_color="#ffffff"/>
    <path class="fil0" d="M590 590l112 0 0 56 -112 0 0 -56zm0 0z" data-original="#000000" data-old_color="#ffffff"/>
    <path class="fil0" d="M731 590l56 0 0 56 -56 0 0 -56zm0 0z" data-original="#000000" data-old_color="#ffffff"/>
    <path class="fil0" d="M506 590l56 0 0 56 -56 0 0 -56zm0 0z" data-original="#000000" data-old_color="#ffffff"/>
   </g>
  </g>
  <circle class="fil1" cx="646" cy="618" r="461"/>
  <g id="criminal-hand-print-silhouette.svg">
   <g>
    <path class="fil2" d="M807 682c-10,-1 -16,-2 -22,-10 -5,-6 -16,-11 -24,-10 -1,0 -2,-1 -2,-1 0,-1 -1,-1 -1,-2 -2,-7 -5,-13 -2,-21 1,-3 -2,-5 -5,-6 -4,-2 -6,1 -6,4 -1,4 -3,7 -6,7 -15,4 -24,14 -31,27 -4,7 -11,9 -19,6 -7,-3 -10,-9 -7,-17 6,-14 4,-28 4,-43 -1,-20 -31,-37 -48,-26 -11,6 -22,5 -34,5 -13,0 -19,-12 -28,-19 -9,-7 -9,-13 -5,-21 3,-10 0,-19 -4,-28 -7,-17 -19,-33 -25,-50 -1,-4 -2,-9 -3,-13 -9,-57 12,-163 -51,-152 -64,10 -11,106 -3,147 1,4 1,9 1,14 1,6 2,14 9,15 15,3 12,16 9,23 -10,26 -1,48 14,69 2,2 3,5 5,7 2,4 3,8 2,12 -3,9 -6,18 -7,27 -3,14 -6,29 1,40 13,20 20,42 29,63 5,11 1,19 -10,22 -19,3 -29,16 -31,35 0,4 0,7 -4,8 -13,1 -19,11 -26,20 -5,5 -10,13 -15,14 -7,1 -11,-8 -17,-12 -10,-6 -20,-12 -28,-20 -2,-1 -4,-3 -5,-4 -20,-12 -31,-33 -42,-51 -1,-2 -3,-4 -4,-6 -10,-16 -27,-28 -42,-40 -5,-5 -13,-7 -20,-5 -8,2 -17,3 -24,8 -6,5 3,9 1,14 -1,1 -1,2 -2,3 -4,8 -4,16 0,23 11,20 26,37 44,47 2,2 4,3 6,4 20,12 41,23 64,24 2,1 4,2 5,3 4,2 8,4 11,6 2,2 3,3 4,5 7,8 13,18 17,28 10,25 23,46 46,60 8,5 16,12 24,17 21,13 39,30 64,36 19,5 39,11 58,13 32,5 62,16 93,21 30,5 59,-13 69,-41 10,-28 14,-57 17,-86 2,-15 1,-32 10,-45 4,-6 7,-12 10,-19 8,-20 16,-41 30,-58 6,-8 10,-17 8,-26 -6,-30 -24,-42 -52,-45zm-75 109c-1,1 -2,2 -4,3 -2,1 -3,2 -5,3 -26,3 -25,11 -24,24 0,2 0,4 0,6 1,13 -5,21 -14,29 -2,1 -3,2 -5,3 -1,-4 -1,6 -1,6 -32,11 -42,-10 -62,-31 -2,-2 -4,-2 -7,-2 0,-2 -1,-4 -1,-6 0,-3 0,-5 -1,-7 -8,-31 0,-58 20,-70 2,-1 4,-2 6,-3 24,-9 35,23 45,13 0,-11 0,-32 -1,-42 1,-2 2,-4 3,-5 2,-1 3,-2 6,-3 1,-1 2,-2 4,-2 6,-3 11,-6 14,-12 7,2 14,6 21,2 0,0 0,0 0,0 0,0 1,0 1,0 0,0 0,0 0,0 -1,0 -1,0 -1,0 -1,9 10,23 18,33 1,2 5,39 -12,61zm-83 -252c-12,-28 -10,-57 -6,-87 3,-26 2,-52 1,-77 0,-6 0,-11 0,-16 3,-47 -7,-154 46,-111 32,21 11,85 10,128 0,6 -1,11 -2,16 -3,16 -2,33 -6,48 -3,14 -3,25 2,39 3,7 0,18 -3,27 -3,9 -9,17 -8,28 1,8 -1,18 3,31 -10,-9 -17,-16 -29,-12 -3,1 -5,-9 -8,-14zm236 -202c-8,22 -8,47 -17,71 -13,35 -32,67 -44,102 -3,9 -5,21 -9,28 -9,15 -14,32 -27,44 -1,1 -2,1 -3,1 -5,-1 -19,-25 -17,-30 5,-11 5,-25 14,-34 5,-4 3,-11 4,-16 12,-45 17,-92 33,-137 4,-11 7,-23 11,-34 7,-17 20,-24 38,-21 10,2 18,13 17,26zm124 246c-4,17 -16,30 -27,41 -21,20 -43,39 -60,61 -6,7 -12,8 -19,9 -2,0 -5,-1 -5,-1 -3,-15 -23,-21 -20,-38 2,-14 11,-27 24,-35 24,-14 47,-28 67,-46 7,-7 15,-12 23,-10 16,-1 20,6 17,19z"/>
   </g>
   <g>
   </g>
   <g>
   </g>
   <g>
   </g>
   <g>
   </g>
   <g>
   </g>
   <g>
   </g>
   <g>
   </g>
   <g>
   </g>
   <g>
   </g>
   <g>
   </g>
   <g>
   </g>
   <g>
   </g>
   <g>
   </g>
   <g>
   </g>
   <g>
   </g>
  </g>
 </g>
</svg>
