<?xml version="1.0" encoding="UTF-8"?>
<!DOCTYPE svg PUBLIC "-//W3C//DTD SVG 1.1//EN" "http://www.w3.org/Graphics/SVG/1.1/DTD/svg11.dtd">
<!-- Creator: CorelDRAW X7 -->
<svg xmlns="http://www.w3.org/2000/svg" xml:space="preserve" width="5.40261in" height="7.16667in" version="1.1" style="shape-rendering:geometricPrecision; text-rendering:geometricPrecision; image-rendering:optimizeQuality; fill-rule:evenodd; clip-rule:evenodd"
viewBox="0 0 1292 1714"
 xmlns:xlink="http://www.w3.org/1999/xlink">
 <defs>
  <style type="text/css">
   <![CDATA[
    .fil5 {fill:#48538A}
    .fil3 {fill:#4C83B3}
    .fil4 {fill:#5A67AD}
    .fil2 {fill:#5B9ED6}
    .fil13 {fill:#674297}
    .fil12 {fill:#CC264B}
    .fil0 {fill:#D280B1}
    .fil11 {fill:#D47499}
    .fil7 {fill:#D9294F}
    .fil9 {fill:#D9BC4A}
    .fil14 {fill:#E69326}
    .fil6 {fill:#EF2D57}
    .fil10 {fill:#F084AD}
    .fil8 {fill:#FCDA55}
    .fil1 {fill:white}
   ]]>
  </style>
 </defs>
 <g id="Layer_x0020_1">
  <metadata id="CorelCorpID_0Corel-Layer"/>
  <g id="_2009934428240">
   <path class="fil0" d="M625 1661c-140,-163 -597,-718 -597,-1015 0,-341 277,-618 618,-618 342,0 619,277 619,618 0,297 -458,852 -597,1015l-22 25 -21 -25zm21 -1436c-217,0 -393,176 -393,393 0,218 176,394 393,394 217,0 394,-176 394,-394 -1,-217 -177,-393 -394,-393zm0 0z" data-original="#78B9EB" data-old_color="#ffffff"/>
   <g>
    <path class="fil0" d="M646 0c-357,1 -645,289 -646,646 0,348 600,1029 625,1058 5,7 13,10 21,10 8,0 16,-3 21,-10 26,-29 625,-710 625,-1058 0,-357 -289,-645 -646,-646zm0 56c326,0 590,264 590,590 0,292 -482,872 -590,997 -107,-125 -590,-705 -590,-997 0,-326 264,-590 590,-590zm0 0z" data-original="#000000" data-old_color="#ffffff"/>
    <path class="fil0" d="M646 197c-232,0 -421,189 -421,421 0,233 189,422 421,422 233,0 421,-189 421,-422 0,-232 -188,-421 -421,-421zm0 787c-202,0 -365,-164 -365,-366 0,-201 163,-365 365,-365 202,0 366,164 366,365 -1,202 -164,365 -366,366zm0 0z" data-original="#000000" data-old_color="#ffffff"/>
    <path class="fil0" d="M590 590l112 0 0 56 -112 0 0 -56zm0 0z" data-original="#000000" data-old_color="#ffffff"/>
    <path class="fil0" d="M731 590l56 0 0 56 -56 0 0 -56zm0 0z" data-original="#000000" data-old_color="#ffffff"/>
    <path class="fil0" d="M506 590l56 0 0 56 -56 0 0 -56zm0 0z" data-original="#000000" data-old_color="#ffffff"/>
   </g>
  </g>
  <circle class="fil1" cx="646" cy="618" r="461"/>
  <g id="drug2.svg">
   <g>
    <path class="fil2" d="M663 905c21,0 38,-14 43,-34 -29,-25 -48,-63 -48,-105 0,-43 19,-81 50,-107l0 -177c0,-25 -20,-45 -45,-45l-299 0c-25,0 -45,20 -45,45l0 378c0,25 20,45 45,45l299 0zm0 0l0 0 0 0z"/>
   </g>
   <path class="fil3" d="M663 437l-34 0c25,0 45,20 45,45l0 154c0,7 -2,14 -7,19 -13,17 -24,35 -31,56 -7,17 -11,35 -11,55 0,19 4,38 11,54 0,1 0,1 0,1 7,19 -7,39 -28,39l-244 0c-25,0 -45,-20 -45,-45l0 45c0,25 20,45 45,45l299 0c14,0 27,-7 36,-18 0,0 0,0 0,0 0,0 0,-1 1,-1 0,0 0,0 0,-1 0,0 0,0 1,-1 0,0 0,0 0,0 0,-1 0,-1 1,-1 0,-1 0,-1 0,-1 0,0 0,-1 1,-1 0,0 0,0 0,-1 0,0 0,0 1,-1 0,0 0,0 0,0 0,-1 0,-1 0,-2 0,0 0,0 1,0 0,-1 0,-1 0,-1 0,-1 0,-1 0,-1 0,0 1,-1 1,-1 0,-1 0,-1 0,-1 0,-1 0,-1 0,-2 -1,-1 -3,-3 -4,-4 0,0 0,0 -1,0 -1,-2 -2,-3 -4,-5 0,0 0,0 0,0 -2,-2 -3,-3 -4,-4 0,-1 -1,-1 -1,-1 -1,-1 -2,-3 -4,-5 -19,-23 -30,-54 -30,-86 0,-43 19,-81 50,-107l0 -177c0,-25 -20,-45 -45,-45l0 0zm0 0z"/>
   <path class="fil4" d="M407 395l213 0 0 42 -213 0 0 -42zm0 0z"/>
   <path class="fil5" d="M565 395l55 0 0 42 -55 0 0 -42zm0 0z"/>
   <path class="fil2" d="M363 334l0 44c0,9 7,17 17,17l267 0c10,0 17,-8 17,-17l0 -87c0,-9 -7,-17 -17,-17l-267 0c-10,0 -17,8 -17,17l0 43zm0 0z"/>
   <path class="fil3" d="M588 274l0 121 59 0c10,0 17,-8 17,-17l0 -87c0,-9 -7,-17 -17,-17l-59 0zm0 0z"/>
   <path class="fil6" d="M630 671c0,64 -52,117 -117,117 -64,0 -116,-53 -116,-117 0,-65 52,-117 116,-117 65,0 117,52 117,117zm0 0z"/>
   <path class="fil7" d="M580 575c13,18 20,41 20,66 0,64 -52,117 -117,117 -24,0 -47,-8 -66,-21 21,31 56,51 96,51 65,0 117,-53 117,-117 0,-40 -20,-75 -50,-96zm0 0z"/>
   <path class="fil8" d="M937 766c0,77 -62,139 -139,139 -77,0 -140,-62 -140,-139 0,-77 63,-140 140,-140 77,0 139,63 139,140zm0 0z"/>
   <path class="fil9" d="M882 654c18,24 28,53 28,85 0,77 -62,139 -139,139 -32,0 -61,-10 -84,-28 25,34 65,55 111,55 77,0 139,-62 139,-139 0,-46 -21,-86 -55,-112l0 0zm0 0z"/>
   <path class="fil9" d="M702 866c5,4 11,9 17,12l192 -192c-3,-6 -8,-12 -12,-17 -1,0 -2,1 -3,2l-192 192c-1,1 -2,2 -2,3l0 0zm0 0z"/>
   <path class="fil10" d="M885 453c-50,12 -89,53 -89,106l0 67c1,0 1,0 2,0 77,0 139,63 139,140 0,38 -15,72 -40,97 3,0 5,1 7,1 60,0 108,-49 108,-108l0 -197c0,-53 -39,-97 -89,-106 0,0 -25,-3 -38,0l0 0zm0 0z"/>
   <path class="fil11" d="M923 453c-14,-2 -26,-2 -38,0 0,0 -1,0 -1,0 50,9 88,53 88,106l0 197c0,45 -28,84 -68,100 -2,2 -4,5 -7,7 3,0 5,1 7,1 60,0 108,-49 108,-108l0 -197c0,-53 -39,-97 -89,-106l0 0zm0 0z"/>
   <path class="fil6" d="M886 657c31,26 51,65 51,109 0,38 -15,72 -40,97 3,0 5,1 7,1 60,0 108,-49 108,-108l0 -99 -126 0zm0 0z"/>
   <path class="fil12" d="M972 756c0,45 -28,84 -68,100 -1,1 -2,2 -3,3 0,0 0,1 0,1 -1,1 -3,2 -4,3 3,0 5,1 7,1 60,0 108,-49 108,-108l0 -99 -40 0 0 99zm0 0z"/>
   <path class="fil1" d="M567 660l-43 0 0 -43c0,-6 -5,-11 -11,-11 -5,0 -10,5 -10,11l0 43 -43 0c-6,0 -11,5 -11,11 0,6 5,11 11,11l43 0 0 43c0,6 5,10 10,10 6,0 11,-4 11,-10l0 -43 43 0c6,0 11,-5 11,-11 0,-6 -5,-11 -11,-11zm0 0z"/>
   <g id="_2550891497376">
    <path class="fil13" d="M437 405c-6,0 -11,-5 -11,-11l0 -120c0,-6 5,-11 11,-11 6,0 10,5 10,11l0 120c0,6 -4,11 -10,11zm0 0z"/>
    <path class="fil13" d="M514 405c-6,0 -11,-5 -11,-11l0 -120c0,-6 5,-11 11,-11 6,0 10,5 10,11l0 120c0,6 -4,11 -10,11zm0 0z"/>
    <path class="fil13" d="M591 405c-6,0 -11,-5 -11,-11l0 -120c0,-6 5,-11 11,-11 6,0 10,5 10,11l0 120c0,6 -4,11 -10,11zm0 0z"/>
   </g>
   <path class="fil14" d="M700 874c-3,0 -5,-1 -8,-3 -4,-4 -4,-11 0,-15l193 -193c4,-4 11,-4 15,0 4,4 4,11 0,15l-192 193c-3,2 -5,3 -8,3l0 0zm0 0z"/>
  </g>
 </g>
</svg>
