<?xml version="1.0" encoding="UTF-8"?>
<!DOCTYPE svg PUBLIC "-//W3C//DTD SVG 1.1//EN" "http://www.w3.org/Graphics/SVG/1.1/DTD/svg11.dtd">
<!-- Creator: CorelDRAW X7 -->
<svg xmlns="http://www.w3.org/2000/svg" xml:space="preserve" width="5.40261in" height="7.16667in" version="1.1" style="shape-rendering:geometricPrecision; text-rendering:geometricPrecision; image-rendering:optimizeQuality; fill-rule:evenodd; clip-rule:evenodd"
viewBox="0 0 1292 1714"
 xmlns:xlink="http://www.w3.org/1999/xlink">
 <defs>
  <style type="text/css">
   <![CDATA[
    .fil3 {fill:#0059AA}
    .fil2 {fill:#0D70B2}
    .fil4 {fill:#1689FC}
    .fil0 {fill:#7F8084}
    .fil1 {fill:white}
   ]]>
  </style>
 </defs>
 <g id="Layer_x0020_1">
  <metadata id="CorelCorpID_0Corel-Layer"/>
  <g id="_2009934428240">
   <path class="fil0" d="M625 1661c-140,-163 -597,-718 -597,-1015 0,-341 277,-618 618,-618 342,0 619,277 619,618 0,297 -458,852 -597,1015l-22 25 -21 -25zm21 -1436c-217,0 -393,176 -393,393 0,218 176,394 393,394 217,0 394,-176 394,-394 -1,-217 -177,-393 -394,-393zm0 0z" data-original="#78B9EB" data-old_color="#ffffff"/>
   <g>
    <path class="fil0" d="M646 0c-357,1 -645,289 -646,646 0,348 600,1029 625,1058 5,7 13,10 21,10 8,0 16,-3 21,-10 26,-29 625,-710 625,-1058 0,-357 -289,-645 -646,-646zm0 56c326,0 590,264 590,590 0,292 -482,872 -590,997 -107,-125 -590,-705 -590,-997 0,-326 264,-590 590,-590zm0 0z" data-original="#000000" data-old_color="#ffffff"/>
    <path class="fil0" d="M646 197c-232,0 -421,189 -421,421 0,233 189,422 421,422 233,0 421,-189 421,-422 0,-232 -188,-421 -421,-421zm0 787c-202,0 -365,-164 -365,-366 0,-201 163,-365 365,-365 202,0 366,164 366,365 -1,202 -164,365 -366,366zm0 0z" data-original="#000000" data-old_color="#ffffff"/>
    <path class="fil0" d="M590 590l112 0 0 56 -112 0 0 -56zm0 0z" data-original="#000000" data-old_color="#ffffff"/>
    <path class="fil0" d="M731 590l56 0 0 56 -56 0 0 -56zm0 0z" data-original="#000000" data-old_color="#ffffff"/>
    <path class="fil0" d="M506 590l56 0 0 56 -56 0 0 -56zm0 0z" data-original="#000000" data-old_color="#ffffff"/>
   </g>
  </g>
  <circle class="fil1" cx="646" cy="618" r="461"/>
  <g id="gun1.svg">
   <path class="fil2" d="M645 768c-3,0 -7,-1 -9,-2 -49,-25 -79,-90 -36,-155 15,-22 49,1 34,23 -27,41 -11,79 20,95 20,9 12,39 -9,39z"/>
   <g>
    <path class="fil3" d="M958 416l0 -42c0,-27 41,-27 41,0l0 42c0,27 -41,27 -41,0z"/>
    <path class="fil3" d="M546 879c-4,31 -31,54 -62,54l-81 0c-38,0 -67,-33 -62,-70l35 -243c0,-8 -10,-18 -21,-18 -11,0 -21,-9 -21,-20l0 -42c0,-11 10,-21 21,-21l624 0c15,0 25,17 18,30l-41 83c-4,7 -11,12 -19,12l-354 0c-40,0 -56,49 -26,73 5,4 8,12 7,19l-18 143z"/>
   </g>
   <g>
    <path class="fil2" d="M1041 540c0,12 -9,21 -21,21l-499 0c-15,0 -25,-14 -20,-27l41 -125c3,-8 11,-14 20,-14l458 0c12,0 21,9 21,21l0 124z"/>
    <path class="fil2" d="M457 547c-2,8 -10,14 -19,14l-104 0 0 -104c0,-11 10,-20 21,-20 11,0 21,-10 21,-21 0,-12 9,-21 20,-21l83 0c14,0 24,14 20,27l-42 125z"/>
   </g>
   <polygon class="fil4" points="536,561 409,561 464,395 591,395 "/>
   <path class="fil3" d="M707 706c0,34 -28,62 -62,62l-103 0c-27,0 -27,-42 0,-42l103 0c11,0 20,-9 20,-20l0 -83c0,-27 42,-27 42,0l0 83z"/>
   <g>
   </g>
   <g>
   </g>
   <g>
   </g>
   <g>
   </g>
   <g>
   </g>
   <g>
   </g>
   <g>
   </g>
   <g>
   </g>
   <g>
   </g>
   <g>
   </g>
   <g>
   </g>
   <g>
   </g>
   <g>
   </g>
   <g>
   </g>
   <g>
   </g>
  </g>
 </g>
</svg>
