<?xml version="1.0" encoding="UTF-8"?>
<!DOCTYPE svg PUBLIC "-//W3C//DTD SVG 1.1//EN" "http://www.w3.org/Graphics/SVG/1.1/DTD/svg11.dtd">
<!-- Creator: CorelDRAW X7 -->
<svg xmlns="http://www.w3.org/2000/svg" xml:space="preserve" width="5.42928in" height="7.19334in" version="1.1" style="shape-rendering:geometricPrecision; text-rendering:geometricPrecision; image-rendering:optimizeQuality; fill-rule:evenodd; clip-rule:evenodd"
viewBox="0 0 1307 1731"
 xmlns:xlink="http://www.w3.org/1999/xlink">
 <defs>
  <style type="text/css">
   <![CDATA[
    .str0 {stroke:#DE2A2A;stroke-width:6.41682}
    .fil1 {fill:#DE2A2A}
    .fil0 {fill:white}
    .fil2 {fill:white}
   ]]>
  </style>
 </defs>
 <g id="Layer_x0020_1">
  <metadata id="CorelCorpID_0Corel-Layer"/>
  <g id="_2009934428240">
   <path class="fil0 str0" d="M632 1675c-141,-164 -600,-723 -600,-1022 0,-343 278,-621 621,-621 344,0 623,278 623,621 0,299 -460,858 -601,1022l-22 24 -21 -24zm21 -1446c-218,0 -395,177 -395,396 0,219 177,396 395,396 219,0 396,-177 396,-396 0,-219 -177,-396 -396,-396zm0 0z" data-original="#78B9EB" data-old_color="#ffffff"/>
   <g>
    <path class="fil0 str0" d="M653 3c-359,1 -649,291 -650,650 0,350 604,1036 629,1065 5,6 13,10 21,10 9,0 16,-4 22,-10 25,-29 628,-715 628,-1065 0,-359 -291,-649 -650,-650zm0 57c328,0 594,266 594,593 0,294 -485,877 -594,1003 -108,-126 -593,-709 -593,-1003 0,-327 266,-593 593,-593zm0 0z" data-original="#000000" data-old_color="#ffffff"/>
    <path class="fil0 str0" d="M653 201c-234,0 -424,190 -424,424 0,234 190,424 424,424 235,0 424,-190 424,-424 0,-234 -189,-423 -424,-424zm0 792c-203,0 -367,-165 -367,-368 0,-203 164,-367 367,-367 203,0 368,164 368,367 -1,203 -165,367 -368,368zm0 0z" data-original="#000000" data-old_color="#ffffff"/>
    <path class="fil0 str0" d="M597 597l113 0 0 56 -113 0 0 -56zm0 0z" data-original="#000000" data-old_color="#ffffff"/>
    <path class="fil0 str0" d="M738 597l57 0 0 56 -57 0 0 -56zm0 0z" data-original="#000000" data-old_color="#ffffff"/>
    <path class="fil0 str0" d="M512 597l57 0 0 56 -57 0 0 -56zm0 0z" data-original="#000000" data-old_color="#ffffff"/>
   </g>
  </g>
  <circle class="fil1 str0" cx="653" cy="625" r="463"/>
  <g id="_2550935384272">
   <circle class="fil2" transform="matrix(0.0814825 -0.349893 0.349893 0.0814825 758.936 334.366)" r="221"/>
   <path class="fil2" d="M594 538c0,-36 14,-61 22,-72 11,-15 22,-22 26,-25 6,-3 12,-5 18,-5 13,0 24,7 31,17 9,17 4,38 -12,48 0,0 0,0 0,0 0,0 0,0 0,1 -2,1 -4,3 -6,6 -3,4 -6,10 -8,21 5,-1 10,-1 16,-1 6,0 12,0 18,1 3,0 5,0 8,0 3,-13 5,-25 7,-36 10,-35 -3,-77 -33,-85 -30,-7 -74,9 -91,61 -11,32 -18,59 -22,86 9,-4 18,-8 26,-11 0,-2 0,-4 0,-6z"/>
   <path class="fil2" d="M880 961c-26,-103 -80,-181 -126,-234 -20,-22 -39,-40 -54,-53 -2,2 -4,4 -7,6 -6,4 -13,6 -20,6 -12,0 -22,-5 -29,-15 -6,-8 -11,-16 -15,-24 -3,0 -6,1 -8,2 0,5 1,11 1,17 0,17 -4,46 -21,79 -2,22 -8,48 -23,76 -19,36 -52,76 -116,112 -21,12 -28,39 -16,60 12,21 39,29 60,17 76,-44 123,-96 150,-148 15,-28 24,-56 28,-80 3,2 5,5 8,8 39,45 81,110 102,193 5,20 23,33 43,33 4,0 7,-1 11,-1 23,-6 38,-30 32,-54l0 0z"/>
   <path class="fil2" d="M700 628c3,0 6,0 9,0 -5,-11 -9,-21 -12,-27l0 -2c-3,-6 -3,-13 0,-19 2,-6 7,-10 13,-13 3,-1 6,-2 9,-2 11,0 20,6 23,16 1,1 2,5 5,10 2,5 4,10 7,17 4,-6 7,-13 6,-21 -3,-23 -24,-50 -61,-51 -13,-1 -24,-1 -34,0 0,0 -1,1 -1,2 0,17 7,46 36,90z"/>
   <path class="fil2" d="M615 666c-1,-8 -1,-15 -2,-22 4,-1 8,-3 12,-4 -18,-31 -28,-61 -30,-89 -8,3 -16,7 -25,11 -28,16 -28,39 -22,60 0,4 1,8 3,12 0,0 0,0 0,0 0,0 0,0 1,0 1,2 6,14 6,32 0,19 -6,46 -33,79 -10,12 -9,29 3,39 6,5 12,7 18,7 8,0 16,-3 22,-10 35,-42 47,-84 47,-115z"/>
   <circle class="fil2" transform="matrix(0.339978 -0.116116 0.116116 0.339978 835.218 582.963)" r="172"/>
   <path class="fil2" d="M650 667c5,8 14,12 23,12 6,0 11,-1 16,-5 13,-8 16,-26 7,-39 -31,-45 -39,-77 -39,-97 1,-18 6,-28 11,-35 2,-3 4,-5 6,-6 1,-1 1,-2 1,-2 0,0 1,0 1,0l0 0c12,-8 17,-25 9,-38 -8,-13 -26,-18 -39,-10l0 0c-2,2 -13,8 -24,23 -11,15 -21,38 -21,68 0,35 13,77 49,129z"/>
   <path class="fil2" d="M740 594c-3,-7 -4,-11 -4,-11 -4,-9 -14,-13 -23,-9 -9,3 -14,14 -10,23 0,0 28,68 58,112 3,5 9,8 14,8 4,0 7,-1 10,-3 8,-6 10,-17 5,-25 -13,-19 -27,-46 -37,-67 -5,-11 -10,-21 -13,-28z"/>
   <rect class="fil2" x="227" y="481" width="300.06" height="9.4618"/>
   <rect class="fil2" x="274" y="506" width="149.535" height="9.4618"/>
   <rect class="fil2" x="356" y="456" width="133.029" height="9.4618"/>
  </g>
 </g>
</svg>
