<?xml version="1.0" encoding="UTF-8"?>
<!DOCTYPE svg PUBLIC "-//W3C//DTD SVG 1.1//EN" "http://www.w3.org/Graphics/SVG/1.1/DTD/svg11.dtd">
<!-- Creator: CorelDRAW X7 -->
<svg xmlns="http://www.w3.org/2000/svg" xml:space="preserve" width="5.40261in" height="7.16667in" version="1.1" style="shape-rendering:geometricPrecision; text-rendering:geometricPrecision; image-rendering:optimizeQuality; fill-rule:evenodd; clip-rule:evenodd"
viewBox="0 0 1292 1714"
 xmlns:xlink="http://www.w3.org/1999/xlink"
 enable-background="new 0 0 256 256">
 <defs>
  <style type="text/css">
   <![CDATA[
    .fil3 {fill:#3762CC}
    .fil4 {fill:#4671C6}
    .fil0 {fill:#A12B39}
    .fil2 {fill:#A4C9FF}
    .fil5 {fill:#F9A7A7}
    .fil6 {fill:#FFEA92}
    .fil1 {fill:white}
   ]]>
  </style>
 </defs>
 <g id="Layer_x0020_1">
  <metadata id="CorelCorpID_0Corel-Layer"/>
  <g id="_2009934428240">
   <path class="fil0" d="M625 1661c-140,-163 -597,-718 -597,-1015 0,-341 277,-618 618,-618 342,0 619,277 619,618 0,297 -458,852 -597,1015l-22 25 -21 -25zm21 -1436c-217,0 -393,176 -393,393 0,218 176,394 393,394 217,0 394,-176 394,-394 -1,-217 -177,-393 -394,-393zm0 0z" data-original="#78B9EB" data-old_color="#ffffff"/>
   <g>
    <path class="fil0" d="M646 0c-357,1 -645,289 -646,646 0,348 600,1029 625,1058 5,7 13,10 21,10 8,0 16,-3 21,-10 26,-29 625,-710 625,-1058 0,-357 -289,-645 -646,-646zm0 56c326,0 590,264 590,590 0,292 -482,872 -590,997 -107,-125 -590,-705 -590,-997 0,-326 264,-590 590,-590zm0 0z" data-original="#000000" data-old_color="#ffffff"/>
    <path class="fil0" d="M646 197c-232,0 -421,189 -421,421 0,233 189,422 421,422 233,0 421,-189 421,-422 0,-232 -188,-421 -421,-421zm0 787c-202,0 -365,-164 -365,-366 0,-201 163,-365 365,-365 202,0 366,164 366,365 -1,202 -164,365 -366,366zm0 0z" data-original="#000000" data-old_color="#ffffff"/>
    <path class="fil0" d="M590 590l112 0 0 56 -112 0 0 -56zm0 0z" data-original="#000000" data-old_color="#ffffff"/>
    <path class="fil0" d="M731 590l56 0 0 56 -56 0 0 -56zm0 0z" data-original="#000000" data-old_color="#ffffff"/>
    <path class="fil0" d="M506 590l56 0 0 56 -56 0 0 -56zm0 0z" data-original="#000000" data-old_color="#ffffff"/>
   </g>
  </g>
  <circle class="fil1" cx="646" cy="618" r="461"/>
  <g id="complaint.svg">
   <path class="fil2" d="M644 832c0,-1 -1,-2 -1,-2 0,0 0,-1 0,-1 0,0 -1,-1 -1,-2l-3 2c-11,6 -25,2 -31,-8l-160 -276c-6,-11 -3,-25 8,-31l4 -2c-1,0 -1,-1 -1,-1l-78 -135c0,-1 -1,-2 -1,-3l-30 17c-62,36 -83,113 -48,174l216 373c36,60 114,81 175,45l29 -16 -78 -134z"/>
   <path class="fil2" d="M765 769l72 124c8,14 3,32 -11,40l-72 42c-11,7 -26,3 -32,-8l-78 -135c-6,-11 -2,-25 9,-32l72 -42c14,-8 32,-3 40,11l0 0z"/>
   <path class="fil2" d="M502 313l72 124c8,15 3,32 -11,41l-72 41c-11,7 -26,3 -32,-8l-78 -135c-6,-11 -3,-25 9,-32l72 -42c14,-8 32,-3 40,11l0 0z"/>
   <g>
    <path class="fil3" d="M742 984c-2,0 -5,0 -7,-1 -8,-2 -14,-7 -18,-13l-78 -135c-8,-14 -3,-32 11,-40l72 -42c17,-10 39,-4 48,13l72 124c5,9 6,18 4,27 -3,9 -9,17 -17,22l-72 41c-5,3 -10,4 -15,4l0 0zm-2 -224c-4,0 -8,1 -12,3l-72 42c-9,5 -11,16 -7,24l78 135c2,4 6,7 11,8 4,1 9,0 13,-2l72 -42c6,-3 10,-8 11,-14 2,-6 1,-12 -2,-18l-72 -124c-4,-8 -12,-12 -20,-12z"/>
    <path class="fil3" d="M479 528c-10,0 -20,-5 -25,-14l-78 -135c-4,-7 -5,-15 -3,-22 2,-8 7,-14 14,-18l72 -42c8,-4 18,-6 27,-3 9,2 17,8 21,16l72 125c5,8 6,17 3,26 -2,9 -8,17 -16,22l-72 41c-5,3 -10,4 -15,4l0 0zm-2 -224c-4,0 -8,1 -12,4l-72 41c-4,3 -7,6 -9,11 -1,4 0,9 2,13l78 135c5,8 16,11 24,6l72 -41c6,-4 10,-9 11,-15 2,-6 1,-12 -2,-18l-72 -124c-3,-5 -8,-9 -14,-11 -2,0 -4,-1 -6,-1l0 0z"/>
    <path class="fil3" d="M742 984c-2,0 -5,0 -7,-1 -8,-2 -14,-7 -18,-13l-78 -135c-8,-14 -3,-32 11,-40l72 -42c17,-10 39,-4 48,13l72 124c5,9 6,18 4,27 -3,9 -9,17 -17,22l-72 41c-5,3 -10,4 -15,4l0 0zm-2 -224c-4,0 -8,1 -12,3l-72 42c-9,5 -11,16 -7,24l78 135c2,4 6,7 11,8 4,1 9,0 13,-2l72 -42c6,-3 10,-8 11,-14 2,-6 1,-12 -2,-18l-72 -124c-4,-8 -12,-12 -20,-12z"/>
    <path class="fil3" d="M479 528c-10,0 -20,-5 -25,-14l-78 -135c-4,-7 -5,-15 -3,-22 2,-8 7,-14 14,-18l72 -42c8,-4 18,-6 27,-3 9,2 17,8 21,16l72 125c5,8 6,17 3,26 -2,9 -8,17 -16,22l-72 41c-5,3 -10,4 -15,4l0 0zm-2 -224c-4,0 -8,1 -12,4l-72 41c-4,3 -7,6 -9,11 -1,4 0,9 2,13l78 135c5,8 16,11 24,6l72 -41c6,-4 10,-9 11,-15 2,-6 1,-12 -2,-18l-72 -124c-3,-5 -8,-9 -14,-11 -2,0 -4,-1 -6,-1l0 0z"/>
    <path class="fil3" d="M742 984c-2,0 -5,0 -7,-1 -8,-2 -14,-7 -18,-13l-78 -135c-8,-14 -3,-32 11,-40l72 -42c17,-10 39,-4 48,13l72 124c5,9 6,18 4,27 -3,9 -9,17 -17,22l-72 41c-5,3 -10,4 -15,4l0 0zm-2 -224c-4,0 -8,1 -12,3l-72 42c-9,5 -11,16 -7,24l78 135c2,4 6,7 11,8 4,1 9,0 13,-2l72 -42c6,-3 10,-8 11,-14 2,-6 1,-12 -2,-18l-72 -124c-4,-8 -12,-12 -20,-12z"/>
    <path class="fil3" d="M479 528c-10,0 -20,-5 -25,-14l-78 -135c-4,-7 -5,-15 -3,-22 2,-8 7,-14 14,-18l72 -42c8,-4 18,-6 27,-3 9,2 17,8 21,16l72 125c5,8 6,17 3,26 -2,9 -8,17 -16,22l-72 41c-5,3 -10,4 -15,4l0 0zm-2 -224c-4,0 -8,1 -12,4l-72 41c-4,3 -7,6 -9,11 -1,4 0,9 2,13l78 135c5,8 16,11 24,6l72 -41c6,-4 10,-9 11,-15 2,-6 1,-12 -2,-18l-72 -124c-3,-5 -8,-9 -14,-11 -2,0 -4,-1 -6,-1l0 0z"/>
    <path class="fil3" d="M629 1006c-47,0 -91,-24 -116,-66l-216 -373c-18,-31 -22,-66 -13,-100 9,-35 31,-64 63,-82l30 -17c1,-1 3,-1 5,0 1,0 3,1 3,3 1,1 1,2 1,2l78 135c0,0 0,0 0,1 1,1 2,3 1,4 0,2 -1,3 -2,4l-4 2c-4,2 -6,6 -8,10 -1,5 0,9 2,13l160 276c5,8 15,10 23,6l3 -2c2,-1 4,-1 5,-1 2,1 3,2 4,4 0,1 0,2 0,2 1,1 1,2 1,2l78 134c0,1 1,3 0,5 0,1 -1,2 -2,3l-29 16c-21,13 -45,19 -67,19l0 0zm-252 -625l-24 15c-29,16 -49,43 -58,74 -8,31 -4,63 12,91l217 373c33,58 108,77 166,43l24 -13 -75 -129c0,0 0,0 0,0 -13,6 -29,1 -36,-11l-160 -276c-4,-7 -5,-14 -3,-22 2,-6 6,-12 12,-16l-75 -129z"/>
   </g>
   <path class="fil4" d="M940 338l-234 0c-25,0 -45,20 -45,44l0 174c0,0 0,1 0,1l-10 79c0,5 4,8 8,7l49 -10c1,0 1,0 1,0l231 0c25,0 45,-20 45,-45l0 -206c0,-24 -20,-44 -45,-44z"/>
   <path class="fil3" d="M658 649c-3,0 -6,-1 -9,-3 -3,-3 -4,-7 -4,-10l10 -80 0 -174c0,-27 23,-50 51,-50l234 0c28,0 51,23 51,50l0 206c0,28 -23,51 -51,51l-231 0 -49 10c-1,0 -2,0 -2,0l0 0zm48 -305c-22,0 -39,17 -39,38l0 174c0,1 0,1 0,2l-10 79c0,0 0,0 0,0 0,1 1,1 1,1l49 -11c1,0 2,0 2,0l231 0c22,0 39,-18 39,-39l0 -206c0,-21 -17,-38 -39,-38l-234 0z"/>
   <circle class="fil5" cx="822" cy="488" r="119"/>
   <path class="fil3" d="M860 557c-4,0 -6,-3 -6,-6 0,-4 -2,-8 -5,-11 -3,-3 -7,-6 -12,-7 -3,-1 -6,-1 -10,-1l-8 0c-4,0 -7,0 -10,1 -5,1 -9,4 -12,7 -3,3 -5,7 -5,11 0,3 -3,6 -6,6 -3,0 -6,-3 -6,-6 0,-7 3,-14 9,-20 4,-4 10,-7 16,-9 4,-2 9,-2 14,-2l8 0c5,0 9,0 13,2 7,2 13,5 17,9 5,6 8,13 8,20 0,3 -2,6 -5,6l0 0z"/>
   <path class="fil3" d="M848 488c-3,0 -5,-2 -6,-4 -1,-3 0,-6 3,-8l55 -25c3,-2 7,-1 8,2 1,3 0,7 -3,8l-55 26c-1,1 -2,1 -2,1z"/>
   <path class="fil3" d="M794 488c-1,0 -2,0 -3,-1l-55 -26c-3,-1 -4,-5 -3,-8 1,-3 5,-4 8,-2l55 25c3,2 4,5 3,8 -1,2 -3,4 -5,4z"/>
   <path class="fil6" d="M860 418c-1,0 -3,-1 -5,-2 -3,-3 -3,-8 0,-11l14 -13 -13 -12c-2,-3 -2,-8 0,-11 3,-2 8,-2 11,0l12 13c3,2 4,6 4,10 0,4 -1,7 -4,10l-13 14c-2,1 -4,2 -6,2zm9 -26l0 0 0 0z"/>
   <path class="fil6" d="M893 382c-4,0 -7,-1 -10,-4l-12 -12c-3,-3 -3,-8 0,-11 3,-3 7,-3 10,0l12 12 13 -13c3,-3 8,-3 11,0 3,3 3,7 0,10l-14 14c-2,3 -6,4 -10,4l0 0z"/>
   <path class="fil6" d="M874 431c-2,0 -4,0 -5,-2 -3,-3 -3,-7 0,-10l13 -14c6,-5 15,-5 21,0l12 13c3,2 3,7 0,10 -3,3 -7,3 -10,0l-12 -12 -14 13c-1,2 -3,2 -5,2l0 0z"/>
   <path class="fil6" d="M924 416c-2,0 -4,-1 -5,-2l-12 -12c-3,-3 -5,-7 -5,-11 0,-4 2,-7 5,-10l13 -13c3,-3 8,-3 10,0 3,2 3,7 0,10l-13 13 12 12c3,3 3,8 0,11 -1,1 -3,2 -5,2l0 0z"/>
  </g>
 </g>
</svg>
