<?xml version="1.0" encoding="UTF-8"?>
<!DOCTYPE svg PUBLIC "-//W3C//DTD SVG 1.1//EN" "http://www.w3.org/Graphics/SVG/1.1/DTD/svg11.dtd">
<!-- Creator: CorelDRAW X7 -->
<svg xmlns="http://www.w3.org/2000/svg" xml:space="preserve" width="5.40261in" height="7.16667in" version="1.1" style="shape-rendering:geometricPrecision; text-rendering:geometricPrecision; image-rendering:optimizeQuality; fill-rule:evenodd; clip-rule:evenodd"
viewBox="0 0 1292 1714"
 xmlns:xlink="http://www.w3.org/1999/xlink">
 <defs>
  <style type="text/css">
   <![CDATA[
    .fil0 {fill:#003333}
    .fil11 {fill:#3BB3E3}
    .fil4 {fill:#484B63}
    .fil5 {fill:#4FC6F5}
    .fil13 {fill:#71F6FC}
    .fil12 {fill:#B5FCFF}
    .fil3 {fill:#BEBADE}
    .fil2 {fill:#D8D5ED}
    .fil10 {fill:#E62753}
    .fil9 {fill:#FF2C5C}
    .fil8 {fill:#FFA954}
    .fil6 {fill:#FFBD54}
    .fil7 {fill:#FFD659}
    .fil1 {fill:white}
   ]]>
  </style>
 </defs>
 <g id="Layer_x0020_1">
  <metadata id="CorelCorpID_0Corel-Layer"/>
  <g id="_2009934428240">
   <path class="fil0" d="M625 1661c-140,-163 -597,-718 -597,-1015 0,-341 277,-618 618,-618 342,0 619,277 619,618 0,297 -458,852 -597,1015l-22 25 -21 -25zm21 -1436c-217,0 -393,176 -393,393 0,218 176,394 393,394 217,0 394,-176 394,-394 -1,-217 -177,-393 -394,-393zm0 0z" data-original="#78B9EB" data-old_color="#ffffff"/>
   <g>
    <path class="fil0" d="M646 0c-357,1 -645,289 -646,646 0,348 600,1029 625,1058 5,7 13,10 21,10 8,0 16,-3 21,-10 26,-29 625,-710 625,-1058 0,-357 -289,-645 -646,-646zm0 56c326,0 590,264 590,590 0,292 -482,872 -590,997 -107,-125 -590,-705 -590,-997 0,-326 264,-590 590,-590zm0 0z" data-original="#000000" data-old_color="#ffffff"/>
    <path class="fil0" d="M646 197c-232,0 -421,189 -421,421 0,233 189,422 421,422 233,0 421,-189 421,-422 0,-232 -188,-421 -421,-421zm0 787c-202,0 -365,-164 -365,-366 0,-201 163,-365 365,-365 202,0 366,164 366,365 -1,202 -164,365 -366,366zm0 0z" data-original="#000000" data-old_color="#ffffff"/>
    <path class="fil0" d="M590 590l112 0 0 56 -112 0 0 -56zm0 0z" data-original="#000000" data-old_color="#ffffff"/>
    <path class="fil0" d="M731 590l56 0 0 56 -56 0 0 -56zm0 0z" data-original="#000000" data-old_color="#ffffff"/>
    <path class="fil0" d="M506 590l56 0 0 56 -56 0 0 -56zm0 0z" data-original="#000000" data-old_color="#ffffff"/>
   </g>
  </g>
  <circle class="fil1" cx="646" cy="618" r="461"/>
  <g id="report.svg">
   <g>
    <g>
     <path class="fil2" d="M857 972l-435 0c-3,0 -6,-3 -6,-6l0 -693c0,-3 3,-6 6,-6l435 0c4,0 6,3 6,6l0 693c0,3 -2,6 -6,6z"/>
     <path class="fil3" d="M820 267l0 705 37 0c4,0 6,-3 6,-6l0 -693c0,-3 -2,-6 -6,-6l-37 0z"/>
     <g>
      <path class="fil4" d="M484 655l312 0c5,0 10,-4 10,-10 0,-6 -5,-10 -10,-10l-312 0c-6,0 -11,4 -11,10 0,6 5,10 11,10z"/>
      <path class="fil4" d="M796 682l-312 0c-6,0 -11,5 -11,10 0,6 5,11 11,11l312 0c5,0 10,-5 10,-11 0,-5 -5,-10 -10,-10z"/>
      <path class="fil4" d="M796 729l-312 0c-6,0 -11,5 -11,11 0,5 5,10 11,10l312 0c5,0 10,-5 10,-10 0,-6 -5,-11 -10,-11z"/>
      <path class="fil4" d="M563 776l-79 0c-6,0 -11,5 -11,11 0,6 5,10 11,10l79 0c6,0 11,-4 11,-10 0,-6 -5,-11 -11,-11z"/>
     </g>
    </g>
    <g>
     <path class="fil5" d="M759 552l-239 0c-3,0 -5,-2 -5,-5l0 -199c0,-3 2,-6 5,-6l239 0c3,0 5,3 5,6l0 199c0,3 -2,5 -5,5z"/>
     <path class="fil6" d="M515 508l75 -66c2,-1 5,-2 7,0l144 110 -221 0c-3,0 -5,-2 -5,-5l0 -39z"/>
     <circle class="fil7" cx="697" cy="399" r="27"/>
     <path class="fil8" d="M689 513l75 -66 0 100c0,3 -2,5 -5,5l-18 0 -52 -39z"/>
    </g>
    <path class="fil4" d="M294 720l0 0c-9,-9 -9,-22 0,-30l139 -140 30 30 -139 140c-9,8 -22,8 -30,0z"/>
    <g>
     <path class="fil7" d="M482 904c9,-72 44,-76 44,-76l41 40c0,0 -5,35 -77,44 -5,1 -9,-3 -8,-8z"/>
     <path class="fil4" d="M551 843c-4,-4 -10,-4 -14,0l-20 20c-4,4 -4,11 0,15 2,2 4,3 7,3 3,0 5,-1 7,-3l20 -20c4,-4 4,-11 0,-15z"/>
     <path class="fil9" d="M569 875l-50 -50c-3,-3 -3,-7 0,-10l407 -407c8,-8 21,-8 29,0l31 31c8,8 8,21 0,29l-407 407c-3,3 -7,3 -10,0z"/>
     <path class="fil10" d="M986 439l-30 -30c8,8 8,21 0,29l-407 407c-3,3 -7,3 -10,0l30 30c3,3 7,3 10,0l407 -407c8,-8 8,-21 0,-29z"/>
     <path class="fil5" d="M569 875l-50 -50c-3,-3 -3,-7 0,-10l25 -25 60 60 -25 25c-3,3 -7,3 -10,0z"/>
     <path class="fil11" d="M574 820l-25 25c-3,3 -7,3 -10,0l30 30c3,3 7,3 10,0l25 -25 -30 -30z"/>
     <rect class="fil5" transform="matrix(0.390571 -0.390571 0.390571 0.390571 864.541 469.587)" width="76.9032" height="153.806"/>
     <rect class="fil11" transform="matrix(0.390571 -0.390571 0.390571 0.390571 894.577 499.624)" width="76.9032" height="76.9032"/>
    </g>
    <path class="fil5" d="M951 922l-169 0c-10,0 -18,-8 -18,-18l0 -64c0,-10 8,-18 18,-18l169 0c10,0 18,8 18,18l0 64c0,10 -8,18 -18,18z"/>
    <path class="fil9" d="M951 922l-68 0 0 -100 68 0c10,0 18,8 18,18l0 64c0,10 -8,18 -18,18z"/>
    <path class="fil10" d="M951 822l-43 0c10,0 18,8 18,18l0 64c0,10 -8,18 -18,18l43 0c10,0 18,-8 18,-18l0 -64c0,-10 -8,-18 -18,-18z"/>
    <rect class="fil12" x="840" y="822" width="42.53" height="99.2391"/>
    <path class="fil12" d="M429 571c-44,-44 -44,-116 0,-160 45,-45 117,-45 161,0 44,44 44,116 0,160 -44,44 -116,44 -161,0z"/>
    <path class="fil13" d="M590 411c-5,-6 -11,-10 -17,-14 30,44 26,105 -13,144 -39,39 -100,44 -144,14 4,5 8,11 13,16 45,44 117,44 161,0 44,-44 44,-116 0,-160z"/>
    <path class="fil4" d="M597 403c-48,-48 -127,-48 -175,0 -23,24 -36,55 -36,88 0,33 13,64 36,87 23,24 54,37 88,37 33,0 64,-13 87,-37 48,-48 48,-126 0,-175zm-15 161c-19,19 -45,30 -72,30 -28,0 -54,-11 -73,-30 -20,-20 -31,-46 -31,-73 0,-28 11,-54 31,-73 20,-20 46,-30 73,-30 26,0 52,10 72,30 41,40 41,106 0,146z"/>
   </g>
  </g>
 </g>
</svg>
