<?xml version="1.0" encoding="UTF-8"?>
<!DOCTYPE svg PUBLIC "-//W3C//DTD SVG 1.1//EN" "http://www.w3.org/Graphics/SVG/1.1/DTD/svg11.dtd">
<!-- Creator: CorelDRAW X7 -->
<svg xmlns="http://www.w3.org/2000/svg" xml:space="preserve" width="5.40261in" height="7.16667in" version="1.1" style="shape-rendering:geometricPrecision; text-rendering:geometricPrecision; image-rendering:optimizeQuality; fill-rule:evenodd; clip-rule:evenodd"
viewBox="0 0 1292 1714"
 xmlns:xlink="http://www.w3.org/1999/xlink">
 <defs>
  <style type="text/css">
   <![CDATA[
    .fil2 {fill:#416CA3}
    .fil0 {fill:#FF7D01}
    .fil1 {fill:white}
   ]]>
  </style>
 </defs>
 <g id="Layer_x0020_1">
  <metadata id="CorelCorpID_0Corel-Layer"/>
  <g id="_2009934428240">
   <path class="fil0" d="M625 1661c-140,-163 -597,-718 -597,-1015 0,-341 277,-618 618,-618 342,0 619,277 619,618 0,297 -458,852 -597,1015l-22 25 -21 -25zm21 -1436c-217,0 -393,176 -393,393 0,218 176,394 393,394 217,0 394,-176 394,-394 -1,-217 -177,-393 -394,-393zm0 0z" data-original="#78B9EB" data-old_color="#ffffff"/>
   <g>
    <path class="fil0" d="M646 0c-357,1 -645,289 -646,646 0,348 600,1029 625,1058 5,7 13,10 21,10 8,0 16,-3 21,-10 26,-29 625,-710 625,-1058 0,-357 -289,-645 -646,-646zm0 56c326,0 590,264 590,590 0,292 -482,872 -590,997 -107,-125 -590,-705 -590,-997 0,-326 264,-590 590,-590zm0 0z" data-original="#000000" data-old_color="#ffffff"/>
    <path class="fil0" d="M646 197c-232,0 -421,189 -421,421 0,233 189,422 421,422 233,0 421,-189 421,-422 0,-232 -188,-421 -421,-421zm0 787c-202,0 -365,-164 -365,-366 0,-201 163,-365 365,-365 202,0 366,164 366,365 -1,202 -164,365 -366,366zm0 0z" data-original="#000000" data-old_color="#ffffff"/>
    <path class="fil0" d="M590 590l112 0 0 56 -112 0 0 -56zm0 0z" data-original="#000000" data-old_color="#ffffff"/>
    <path class="fil0" d="M731 590l56 0 0 56 -56 0 0 -56zm0 0z" data-original="#000000" data-old_color="#ffffff"/>
    <path class="fil0" d="M506 590l56 0 0 56 -56 0 0 -56zm0 0z" data-original="#000000" data-old_color="#ffffff"/>
   </g>
  </g>
  <circle class="fil1" cx="646" cy="618" r="461"/>
  <g id="tip2.svg">
   <g>
    <path class="fil2" d="M448 522c0,0 -74,289 -100,402l141 -193c-13,-29 -5,-72 18,-97 30,-33 83,-33 116,-3 33,30 36,82 5,115 -22,25 -65,35 -95,24l-176 166 372 -145 150 -224 -196 -183 -235 138z"/>
    <polygon class="fil2" points="831,247 723,347 916,533 1017,427 "/>
   </g>
   <g>
   </g>
   <g>
   </g>
   <g>
   </g>
   <g>
   </g>
   <g>
   </g>
   <g>
   </g>
   <g>
   </g>
   <g>
   </g>
   <g>
   </g>
   <g>
   </g>
   <g>
   </g>
   <g>
   </g>
   <g>
   </g>
   <g>
   </g>
   <g>
   </g>
  </g>
 </g>
</svg>
