<?xml version="1.0" encoding="UTF-8"?>
<!DOCTYPE svg PUBLIC "-//W3C//DTD SVG 1.1//EN" "http://www.w3.org/Graphics/SVG/1.1/DTD/svg11.dtd">
<!-- Creator: CorelDRAW X7 -->
<svg xmlns="http://www.w3.org/2000/svg" xml:space="preserve" width="5.40261in" height="7.16667in" version="1.1" style="shape-rendering:geometricPrecision; text-rendering:geometricPrecision; image-rendering:optimizeQuality; fill-rule:evenodd; clip-rule:evenodd"
viewBox="0 0 1292 1714"
 xmlns:xlink="http://www.w3.org/1999/xlink">
 <defs>
  <style type="text/css">
   <![CDATA[
    .fil12 {fill:black}
    .fil6 {fill:#28231E}
    .fil5 {fill:#332F2A}
    .fil0 {fill:#416CA3}
    .fil4 {fill:#423E38}
    .fil7 {fill:#82ADBC}
    .fil8 {fill:#9EBECC}
    .fil9 {fill:#BF834C}
    .fil10 {fill:#E8B287}
    .fil3 {fill:#EDEDED}
    .fil11 {fill:#F4D3A6}
    .fil2 {fill:#FFE7CF}
    .fil1 {fill:white}
   ]]>
  </style>
 </defs>
 <g id="Layer_x0020_1">
  <metadata id="CorelCorpID_0Corel-Layer"/>
  <g id="_2009934428240">
   <path class="fil0" d="M625 1661c-140,-163 -597,-718 -597,-1015 0,-341 277,-618 618,-618 342,0 619,277 619,618 0,297 -458,852 -597,1015l-22 25 -21 -25zm21 -1436c-217,0 -393,176 -393,393 0,218 176,394 393,394 217,0 394,-176 394,-394 -1,-217 -177,-393 -394,-393zm0 0z" data-original="#78B9EB" data-old_color="#ffffff"/>
   <g>
    <path class="fil0" d="M646 0c-357,1 -645,289 -646,646 0,348 600,1029 625,1058 5,7 13,10 21,10 8,0 16,-3 21,-10 26,-29 625,-710 625,-1058 0,-357 -289,-645 -646,-646zm0 56c326,0 590,264 590,590 0,292 -482,872 -590,997 -107,-125 -590,-705 -590,-997 0,-326 264,-590 590,-590zm0 0z" data-original="#000000" data-old_color="#ffffff"/>
    <path class="fil0" d="M646 197c-232,0 -421,189 -421,421 0,233 189,422 421,422 233,0 421,-189 421,-422 0,-232 -188,-421 -421,-421zm0 787c-202,0 -365,-164 -365,-366 0,-201 163,-365 365,-365 202,0 366,164 366,365 -1,202 -164,365 -366,366zm0 0z" data-original="#000000" data-old_color="#ffffff"/>
    <path class="fil0" d="M590 590l112 0 0 56 -112 0 0 -56zm0 0z" data-original="#000000" data-old_color="#ffffff"/>
    <path class="fil0" d="M731 590l56 0 0 56 -56 0 0 -56zm0 0z" data-original="#000000" data-old_color="#ffffff"/>
    <path class="fil0" d="M506 590l56 0 0 56 -56 0 0 -56zm0 0z" data-original="#000000" data-old_color="#ffffff"/>
   </g>
  </g>
  <circle class="fil1" cx="646" cy="618" r="461"/>
  <g id="terrorist.svg">
   <path class="fil2" d="M851 681l-115 -21c-15,-3 -25,-20 -25,-35l0 -67 -72 0 0 0 -72 0 0 67c0,15 -10,32 -25,35l-116 21c-54,17 -92,67 -92,124l0 128c0,10 8,17 17,17l576 0c9,0 17,-7 17,-17l0 -128c0,-57 -38,-107 -93,-124z"/>
   <polygon class="fil3" points="629,902 629,902 "/>
   <path class="fil4" d="M851 681l-115 -21 0 0c-54,52 -140,52 -194,0l0 0 -116 21c-54,17 -92,67 -92,124l0 128c0,10 8,17 17,17l576 0c9,0 17,-7 17,-17l0 -128c0,-57 -38,-107 -93,-124z"/>
   <path class="fil5" d="M851 681l-115 -21 0 0c-20,19 -44,32 -70,37l126 25c55,16 92,38 92,95l0 133 43 0c9,0 17,-7 17,-17l0 -128c0,-57 -38,-107 -93,-124z"/>
   <path class="fil4" d="M741 261c-24,-21 -58,-39 -102,-39 -45,0 -78,18 -102,39 -31,26 -47,65 -47,105l0 76c0,40 50,170 149,170 98,0 149,-130 149,-170l0 -76c0,-40 -16,-79 -47,-105zm-21 169l-40 6c-30,5 -60,5 -91,0l-31 -6c-18,-2 -30,-17 -30,-34 0,-20 16,-36 35,-36l152 0c19,0 35,16 35,36 0,17 -13,32 -30,34z"/>
   <path class="fil5" d="M741 261c-24,-21 -58,-39 -102,-39 -11,0 -21,1 -30,3 30,6 54,20 72,36 31,26 47,65 47,105l0 76c0,36 -40,143 -119,165 9,3 19,5 30,5 98,0 149,-130 149,-170l0 -76c0,-40 -16,-79 -47,-105z"/>
   <path class="fil2" d="M720 430l-40 6c-30,5 -60,5 -91,0l-31 -6c-18,-2 -30,-17 -30,-34l0 0c0,-20 16,-36 35,-36l152 0c19,0 35,16 35,36l0 0c0,17 -13,32 -30,34z"/>
   <path class="fil5" d="M833 619c-17,-23 -76,-39 -101,-54 -6,8 -14,15 -21,21l0 39c0,15 10,32 25,35 -26,25 -60,38 -94,39 -1,0 -2,0 -3,0 -1,0 -2,0 -4,0 -33,-1 -67,-14 -93,-39 15,-3 25,-20 25,-35l0 -39c-8,-6 -15,-13 -22,-21 -24,15 -83,31 -100,54 -12,15 -13,38 -4,54 6,10 24,22 47,32 96,43 206,43 302,0 23,-10 41,-22 47,-32 8,-16 8,-39 -4,-54z"/>
   <path class="fil6" d="M833 619c-17,-23 -76,-39 -101,-54 -6,7 -12,13 -19,19 24,10 49,21 60,35 12,15 12,38 4,54 -6,10 -24,22 -47,32 -39,18 -80,28 -121,31 61,5 124,-5 181,-31 23,-10 41,-22 47,-32 8,-16 8,-39 -4,-54z"/>
   <g>
    <path class="fil7" d="M954 749l7 -19c1,-4 -1,-9 -5,-11l-88 -31 0 40 75 26c5,2 9,0 11,-5z"/>
    <path class="fil7" d="M839 612c41,-18 77,-43 109,-77 3,-3 9,-3 13,0 8,7 17,15 26,23 4,3 4,9 1,13 -43,45 -93,78 -149,99l0 -58z"/>
   </g>
   <path class="fil8" d="M854 439l0 -172c0,-7 -6,-13 -13,-13l-20 0 0 185 33 0 0 0z"/>
   <path class="fil9" d="M857 943l-25 -186 -4 0c-8,0 -14,-6 -14,-14l0 -320c0,-4 3,-7 7,-7l26 0c4,0 7,3 7,7l0 58c0,13 5,25 13,35 9,10 13,23 13,37l0 204 53 166c2,5 -1,10 -6,11l-59 16c-5,2 -10,-2 -11,-7z"/>
   <path class="fil10" d="M880 757l53 166c2,5 -1,10 -6,11l-59 16c-5,2 -10,-2 -11,-7l-25 -186 48 0 0 0z"/>
   <path class="fil9" d="M852 911l72 -19 9 31c2,5 -1,10 -6,11l-59 16c-5,2 -10,-2 -11,-7l-5 -32z"/>
   <g>
    <path class="fil11" d="M711 625l0 -39c-18,13 -38,23 -61,25l0 54c0,12 6,25 16,32 26,-5 50,-18 70,-37l0 0c-15,-3 -25,-20 -25,-35z"/>
    <path class="fil11" d="M715 360l-25 0 0 75 30 -5c17,-2 30,-17 30,-34 0,-20 -16,-36 -35,-36z"/>
   </g>
   <path class="fil12" d="M570 411l21 0c6,0 11,-5 11,-11 0,-6 -5,-11 -11,-11l-21 0c-6,0 -11,5 -11,11 0,6 5,11 11,11z"/>
   <path class="fil12" d="M687 411l20 0c6,0 11,-5 11,-11 0,-6 -5,-11 -11,-11l-20 0c-6,0 -11,5 -11,11 0,6 5,11 11,11z"/>
   <path class="fil12" d="M588 447c16,2 32,4 49,4 15,0 30,-2 45,-4l40 -6 0 0c22,-3 39,-23 39,-45 0,-26 -21,-47 -46,-47l-152 0c-25,0 -46,21 -46,47 0,22 16,42 39,45l32 6zm-49 -51c0,-14 11,-25 24,-25l152 0c13,0 24,11 24,25 0,11 -9,21 -20,23l-40 6c-29,5 -59,5 -88,0l-32 -5c-11,-2 -20,-12 -20,-24z"/>
   <g>
    <path class="fil12" d="M927 961c15,0 28,-12 28,-28l0 -128c0,-13 -2,-27 -6,-39 7,-1 13,-6 15,-13l7 -19c2,-5 2,-11 -1,-15 -2,-5 -6,-8 -11,-10l-30 -11c1,-2 1,-5 1,-8l0 -40c0,-5 -1,-9 -3,-13 25,-17 48,-36 69,-58 3,-4 5,-10 5,-15 0,-6 -3,-11 -7,-15 0,0 0,0 0,0l-26 -23c-8,-7 -21,-6 -28,2 -15,16 -31,30 -49,42l0 -17c0,-16 -5,-32 -16,-44 -6,-8 -10,-18 -10,-28l0 -58 0 -51c0,-6 -5,-11 -11,-11 -6,0 -11,5 -11,11l0 33 -11 0 0 -140 9 0c1,0 2,1 2,2l0 53c0,6 5,11 11,11 6,0 11,-5 11,-11l0 -53c0,-12 -9,-23 -22,-24 0,0 0,0 0,0l0 -24c0,-6 -5,-11 -11,-11 -6,0 -11,5 -11,11l0 24 0 0c-6,0 -11,5 -11,11l0 155c-4,3 -7,8 -7,14l0 162c-11,-5 -22,-10 -32,-14 -8,-3 -15,-6 -21,-9 32,-42 49,-94 49,-120l0 -76c0,-44 -18,-86 -51,-114 -32,-27 -68,-41 -109,-41 0,0 0,0 0,0 -41,0 -78,14 -109,41 -33,28 -51,70 -51,114l0 76c0,26 16,78 49,120 -6,3 -13,6 -21,9 -27,11 -58,24 -71,42 -12,15 -15,38 -8,57l-4 1c0,0 0,0 -1,0 -29,8 -54,26 -72,50 -18,25 -28,54 -28,84l0 14c0,6 5,11 11,11 6,0 11,-5 11,-11l0 -14c0,-26 8,-50 24,-70 15,-21 36,-35 60,-43l12 -2c6,6 15,11 26,17 0,0 0,0 0,0 1,1 2,1 2,1 1,1 2,1 2,1 1,1 2,1 3,2 1,0 2,1 3,1 1,1 1,1 2,1 1,1 3,1 4,2 50,22 103,34 156,34 53,0 106,-12 155,-34 2,0 3,-1 5,-2 0,0 0,0 0,0 1,-1 2,-1 3,-2 1,0 1,0 1,0l0 32c0,12 8,22 19,24l23 172 82 22zm-82 -22l-410 0 0 -78c0,-6 -5,-11 -11,-11 -6,0 -11,5 -11,11l0 78 -62 0c-3,0 -6,-2 -6,-6l0 -62c0,-6 -5,-11 -11,-11 -6,0 -11,5 -11,11l0 62c0,16 13,28 28,28l576 0 -82 -22zm-344 -497l0 -76c0,-38 16,-73 43,-97 28,-24 60,-36 95,-36 35,0 67,12 95,36 27,24 43,59 43,97l0 76c0,17 -11,57 -36,94 -5,7 -10,14 -17,22 0,0 0,0 0,0 -6,7 -13,13 -20,19 0,0 0,0 -1,0 -17,14 -39,23 -64,23 -26,0 -47,-9 -65,-23 0,0 0,0 0,0 -7,-6 -14,-12 -20,-19 0,0 0,0 0,0 -7,-8 -13,-15 -17,-22 -25,-37 -36,-77 -36,-94zm216 220c-22,16 -48,26 -75,26 -1,0 -1,0 -2,0l-1 0 -1 0c-1,0 -2,0 -2,0 -27,0 -53,-10 -75,-26 11,-9 17,-24 17,-37l0 -19c18,10 38,17 61,17 22,0 43,-7 61,-17l0 19c0,13 6,28 17,37zm86 24c-5,3 -11,6 -18,9 -93,42 -199,42 -293,0 -1,0 -1,-1 -2,-1 -1,0 -1,0 -1,-1 -1,0 -1,0 -2,0 0,-1 0,-1 -1,-1 -1,-1 -3,-1 -5,-2 0,0 0,0 0,0 0,-1 -1,-1 -2,-1 0,0 0,0 0,-1 -2,-1 -5,-2 -6,-3 -1,0 -1,0 -1,0 -1,-1 -3,-2 -5,-3 0,0 0,0 0,0 -1,-1 -1,-1 -1,-1 0,0 -1,0 -1,0 0,-1 -1,-1 -1,-1 0,0 0,0 0,0 0,0 -1,-1 -1,-1 0,0 -1,0 -1,0 0,-1 0,-1 0,-1 -1,0 -1,0 -1,0 0,0 0,0 0,0 -4,-3 -6,-5 -8,-7 0,0 0,0 0,0 -1,-2 -2,-3 -2,-3 -7,-13 -6,-31 2,-42 10,-13 39,-25 63,-35 10,-4 19,-8 27,-12 4,4 9,8 13,12l0 34c0,11 -8,23 -16,24 -4,1 -8,4 -9,8 -1,4 0,8 3,11 27,26 63,41 101,42 1,0 2,0 3,0l1 0 1 0c1,0 2,0 3,0 38,-1 73,-16 101,-42 3,-3 4,-7 3,-11 -2,-4 -5,-7 -9,-8 -8,-1 -16,-13 -16,-24l0 -34c4,-4 8,-8 13,-12 8,4 17,8 27,12 14,6 29,12 41,19l0 76 0 0zm88 -28c6,-3 12,-6 17,-9 0,0 0,1 0,1l0 40c0,0 0,0 0,1l-17 -6 0 -27 0 0zm-59 88l-4 0c-2,0 -3,-1 -3,-3l0 -50 0 -266 18 0 0 54c0,15 6,31 16,42 6,9 10,19 10,30l0 38 0 61 0 41 0 39 0 14 -37 0zm24 107l-11 -85 27 0 38 117 -48 13 -6 -45zm11 86l-2 -19 51 -14 6 18 -55 15zm66 -55l-42 -129 0 -7 32 11c7,15 10,30 10,46l0 79 0 0zm16 -155l-5 14 -53 -19 0 -16 58 21zm-58 -96l0 -36c23,-15 44,-33 64,-53l23 21c-26,27 -55,50 -87,68z"/>
   </g>
   <g id="_2550930286912">
   </g>
   <g id="_2550930287328">
   </g>
   <g id="_2550930286944">
   </g>
   <g id="_2550930288384">
   </g>
   <g id="_2550930285312">
   </g>
   <g id="_2550930285824">
   </g>
   <g id="_2550930286240">
   </g>
   <g id="_2550930285248">
   </g>
   <g id="_2550930285760">
   </g>
   <g id="_2550930284768">
   </g>
   <g id="_2550930283648">
   </g>
   <g id="_2550930283456">
   </g>
   <g id="_2550930283392">
   </g>
   <g id="_2550930284032">
   </g>
   <g id="_2550930284608">
   </g>
  </g>
 </g>
</svg>
