<?xml version="1.0" encoding="UTF-8"?>
<!DOCTYPE svg PUBLIC "-//W3C//DTD SVG 1.1//EN" "http://www.w3.org/Graphics/SVG/1.1/DTD/svg11.dtd">
<!-- Creator: CorelDRAW X7 -->
<svg xmlns="http://www.w3.org/2000/svg" xml:space="preserve" width="9.41816in" height="12.489in" version="1.1" style="shape-rendering:geometricPrecision; text-rendering:geometricPrecision; image-rendering:optimizeQuality; fill-rule:evenodd; clip-rule:evenodd"
viewBox="0 0 2202 2921"
 xmlns:xlink="http://www.w3.org/1999/xlink">
 <defs>
  <style type="text/css">
   <![CDATA[
    .fil2 {fill:#036802}
    .fil0 {fill:red}
    .fil1 {fill:white}
   ]]>
  </style>
 </defs>
 <g id="Layer_x0020_1">
  <metadata id="CorelCorpID_0Corel-Layer"/>
  <g id="_2009863091072">
   <path class="fil0" d="M1065 2831c-239,-278 -1017,-1224 -1017,-1730 0,-582 471,-1053 1053,-1053 582,0 1054,471 1054,1053 0,506 -779,1452 -1017,1730l-37 42 -36 -42zm36 -2448c-370,0 -670,300 -670,670 0,371 300,671 670,671 370,0 671,-300 671,-671 -1,-370 -301,-670 -671,-670zm0 0z" data-original="#78B9EB" data-old_color="#ffffff"/>
   <g>
    <path class="fil0" d="M1101 0c-608,1 -1100,493 -1101,1101 0,593 1022,1754 1065,1803 9,11 22,17 36,17 14,0 27,-6 36,-17 44,-49 1065,-1210 1065,-1803 0,-608 -493,-1100 -1101,-1101zm0 96c555,0 1005,450 1006,1005 0,498 -822,1485 -1006,1698 -183,-213 -1005,-1200 -1005,-1698 0,-555 450,-1005 1005,-1005zm0 0z" data-original="#000000" data-old_color="#ffffff"/>
    <path class="fil0" d="M1101 335c-396,0 -718,322 -718,718 0,397 322,719 718,719 397,0 718,-322 718,-719 0,-396 -321,-717 -718,-718zm0 1341c-344,0 -622,-279 -622,-623 0,-343 278,-622 622,-622 344,0 623,279 623,622 -1,344 -279,622 -623,623zm0 0z" data-original="#000000" data-old_color="#ffffff"/>
    <path class="fil0" d="M1005 1005l192 0 0 96 -192 0 0 -96zm0 0z" data-original="#000000" data-old_color="#ffffff"/>
    <path class="fil0" d="M1245 1005l96 0 0 96 -96 0 0 -96zm0 0z" data-original="#000000" data-old_color="#ffffff"/>
    <path class="fil0" d="M862 1005l96 0 0 96 -96 0 0 -96zm0 0z" data-original="#000000" data-old_color="#ffffff"/>
   </g>
  </g>
  <circle class="fil1" cx="1101" cy="1053" r="785"/>
  <g id="gangster-talking-by-a-phone-and-pointing-with-an-arm-to-a-prisoner-sitting-on-a-chair-in-front-of-him.svg">
   <g>
    <g>
     <path class="fil2" d="M1079 909l-177 -73 -117 -77c-2,-1 -3,-1 -4,-2 -7,-4 -14,-5 -21,-6 -3,0 -6,-1 -9,-2 51,-4 91,-68 91,-120 0,-8 -1,-15 -2,-23l28 0c4,0 8,-3 8,-8l-71 -21 -119 0 -47 14 -3 -5c-3,-4 -7,-6 -11,-6 -2,0 -5,1 -7,2l-10 7c-1,0 -1,0 -1,0 -8,7 -16,25 -7,55 -16,0 -30,13 -30,30l0 5c0,4 1,8 0,12l0 7 -1 6c0,2 0,4 0,6 -1,2 -1,4 -2,6 0,5 -1,9 -3,13 -2,8 -5,17 -8,25 -2,4 -4,8 -6,12 -1,1 -1,3 -2,5 -1,2 -3,4 -3,5 -4,4 -7,10 -8,16 -4,18 8,36 26,39l12 3 52 10c0,1 0,3 0,4l2 173c0,15 4,30 10,43l-21 396c0,17 12,32 29,35 18,2 35,-10 38,-29l48 -345c0,0 1,0 1,0l54 339c2,16 18,29 35,28 18,-2 32,-17 31,-36l-27 -386c0,-1 0,-3 0,-5 0,-2 -1,-4 -2,-7 4,-11 7,-22 6,-35l-1 -130 33 17 3 2c1,1 3,1 4,1l188 58c15,4 31,-3 37,-18 7,-16 -1,-34 -16,-40zm-334 -171c-14,0 -27,-6 -39,-15l0 0c1,0 1,0 1,-1 6,-3 7,-11 4,-16l-19 -30c-2,-3 -4,-5 -7,-6 4,2 9,3 13,3 21,0 38,-17 38,-37l19 0c0,20 17,37 37,37 21,0 37,-17 37,-37l1 0c-3,47 -41,102 -85,102zm-96 -103c0,7 1,14 3,22 -5,-7 -9,-15 -10,-19l7 -3zm11 1l1 0c0,15 9,28 23,34 -3,-1 -7,0 -10,1 0,1 0,1 -1,1l-3 3c-5,-13 -9,-26 -10,-39zm168 -30c1,4 2,8 2,12l-169 0c0,-4 1,-8 2,-12l6 0c53,9 106,9 159,0zm-177 0c0,1 0,2 -1,3l-2 -3 3 0zm27 154l-46 -3c1,-5 2,-10 2,-16 1,-5 1,-11 1,-17 1,-3 1,-6 1,-9 0,-3 0,-6 -1,-10l0 -1c22,25 40,28 48,28 5,0 8,-1 11,-3l1 0c9,8 20,14 31,18 -18,0 -34,5 -48,13z"/>
     <path class="fil2" d="M1158 901l8 2c1,1 2,0 2,-1l5 -20c0,-1 0,-2 -1,-2l-4 -1 2 -7 -3 -1 0 -1c0,-1 0,-2 -1,-2l-8 -2c-1,0 -2,1 -2,1l0 1 -96 -22c-1,0 -1,0 -2,0l0 -2c0,-1 -1,-2 -2,-2l-2 0c-1,1 -1,2 -1,2l0 1c-2,1 -5,1 -7,2l-9 -2c0,0 -1,0 -2,1l-6 26c0,1 1,2 2,2l0 1c-1,2 -1,4 1,6l-2 4 59 23c6,-3 9,-8 11,-10l54 12 4 -9zm-88 -5l2 -5 3 1c0,2 1,5 2,7 -2,-1 -5,-2 -7,-3zm16 9c-1,-1 -3,-2 -4,-3 0,0 0,-1 -1,-1 -2,-1 -3,-5 -3,-8l17 4c-1,2 -4,6 -9,8z"/>
     <path class="fil2" d="M1482 1288l0 -4 -2 0 -15 -29c-5,9 -8,19 -11,27l5 9c-1,42 -1,239 0,286 7,-3 15,-8 23,-15l0 -226 1 2c2,3 6,6 10,6 2,0 4,-1 5,-2 6,-2 8,-9 5,-14l-21 -40z"/>
     <path class="fil2" d="M1459 1587c0,25 -6,49 -12,73l35 0 0 -89c-8,7 -15,11 -23,14 0,1 0,2 0,2z"/>
     <path class="fil2" d="M1528 1259l-9 -28c-9,-7 -18,-9 -26,-6 -12,3 -20,14 -27,27l14 27c6,11 19,17 31,13 14,-4 21,-19 17,-33z"/>
     <path class="fil2" d="M1185 1588l1 35c1,16 14,29 30,30 17,0 32,-13 32,-30l2 -49c-16,12 -32,16 -46,16 -7,0 -13,-1 -19,-2z"/>
     <path class="fil2" d="M1449 1581l7 -178c0,-5 0,-10 -3,-14l-1 -4 -43 -96c0,-2 0,-4 1,-5l8 0c7,0 12,-5 12,-11l0 -38 19 38c3,-9 7,-18 12,-26l-23 -43 5 4 19 37c7,-13 17,-24 28,-27 9,-3 17,-2 26,3l-15 -46c-1,-3 -2,-6 -4,-8l-3 -3 -64 -73 0 -81c0,-6 -5,-11 -12,-11l-86 0c34,-5 64,-28 80,-59 19,-5 24,-52 24,-52 0,-66 -54,-120 -120,-120 -67,0 -121,54 -121,120 0,0 5,47 24,52 3,6 7,12 11,18 17,22 41,37 69,41l-86 0c-7,0 -12,5 -12,11l0 82 -56 65 -3 3c-2,2 -3,5 -4,8l-13 49c5,-1 11,-1 16,1 13,4 23,17 31,31l26 -49 3 -4 0 2 -28 55c5,9 9,19 11,27l17 -34 0 27c0,6 5,11 12,11l8 0c1,3 1,6 2,9l-41 92 -2 4c-2,4 -3,9 -3,14l7 178c19,5 43,3 67,-16l5 -125 122 0 5 127c14,9 39,21 66,14zm-213 -628c-5,-6 -9,-13 -12,-20l0 -45c0,0 100,18 131,-50 0,43 26,36 52,44l0 51c-16,35 -51,60 -91,60 -5,0 -10,0 -14,-1 -27,-4 -50,-18 -66,-39zm115 69c-23,1 -29,118 -29,118 0,-77 -26,-118 -26,-118 11,0 55,0 55,0zm-120 36l-7 7 0 -44 39 0c-14,9 -25,22 -32,37zm26 362l0 -5 31 -52c9,3 18,4 27,4 11,0 21,-1 30,-5l32 53 0 5 -120 0zm150 -355l-7 -7c-7,-15 -18,-28 -32,-37l39 0 0 44 0 0z"/>
     <path class="fil2" d="M1449 1588c-6,1 -12,2 -17,2 -20,0 -37,-7 -49,-14l2 47c1,16 14,29 30,30 17,0 32,-13 33,-30l1 -35z"/>
     <path class="fil2" d="M1174 1584c-10,-3 -18,-8 -24,-12l0 88 36 0c-6,-24 -13,-48 -12,-73 0,-1 0,-1 0,-3z"/>
     <path class="fil2" d="M1150 1564c5,4 14,9 24,13 0,-50 1,-258 -1,-272l-1 0 7 -15c-2,-7 -5,-18 -10,-29l-37 74c-3,5 -1,12 4,15 2,0 4,1 5,1 4,0 7,-2 9,-5l0 218 0 0z"/>
     <path class="fil2" d="M1161 1269l7 -12c-7,-15 -17,-29 -30,-32 -4,-2 -10,-2 -15,0l-7 26c-3,12 -1,25 11,30 13,7 28,1 34,-12z"/>
     <path class="fil2" d="M799 528c0,0 -3,-30 -27,-30 -6,0 -12,4 -16,10 0,0 -11,10 -22,0 0,-1 0,-1 0,-1 -4,-6 -10,-9 -16,-9 -24,0 -26,30 -26,30l-4 39 114 0 -3 -39z"/>
    </g>
   </g>
   <g>
   </g>
   <g>
   </g>
   <g>
   </g>
   <g>
   </g>
   <g>
   </g>
   <g>
   </g>
   <g>
   </g>
   <g>
   </g>
   <g>
   </g>
   <g>
   </g>
   <g>
   </g>
   <g>
   </g>
   <g>
   </g>
   <g>
   </g>
   <g>
   </g>
  </g>
 </g>
</svg>
