<?xml version="1.0" encoding="UTF-8"?>
<!DOCTYPE svg PUBLIC "-//W3C//DTD SVG 1.1//EN" "http://www.w3.org/Graphics/SVG/1.1/DTD/svg11.dtd">
<!-- Creator: CorelDRAW X7 -->
<svg xmlns="http://www.w3.org/2000/svg" xml:space="preserve" width="9.41816in" height="12.489in" version="1.1" style="shape-rendering:geometricPrecision; text-rendering:geometricPrecision; image-rendering:optimizeQuality; fill-rule:evenodd; clip-rule:evenodd"
viewBox="0 0 2202 2921"
 xmlns:xlink="http://www.w3.org/1999/xlink">
 <defs>
  <style type="text/css">
   <![CDATA[
    .fil0 {fill:#6F0599}
    .fil1 {fill:white}
   ]]>
  </style>
 </defs>
 <g id="Layer_x0020_1">
  <metadata id="CorelCorpID_0Corel-Layer"/>
  <g id="_2009931903632">
   <path class="fil0" d="M1065 2831c-239,-278 -1017,-1224 -1017,-1730 0,-582 471,-1053 1053,-1053 582,0 1054,471 1054,1053 0,506 -779,1452 -1017,1730l-37 42 -36 -42zm36 -2448c-370,0 -670,300 -670,670 0,371 300,671 670,671 370,0 671,-300 671,-671 -1,-370 -301,-670 -671,-670zm0 0z" data-original="#78B9EB" data-old_color="#ffffff"/>
   <g>
    <path class="fil0" d="M1101 0c-608,1 -1100,493 -1101,1101 0,593 1022,1754 1065,1803 9,11 22,17 36,17 14,0 27,-6 36,-17 44,-49 1065,-1210 1065,-1803 0,-608 -493,-1100 -1101,-1101zm0 96c555,0 1005,450 1006,1005 0,498 -822,1485 -1006,1698 -183,-213 -1005,-1200 -1005,-1698 0,-555 450,-1005 1005,-1005zm0 0z" data-original="#000000" data-old_color="#ffffff"/>
    <path class="fil0" d="M1101 335c-396,0 -718,322 -718,718 0,397 322,719 718,719 397,0 718,-322 718,-719 0,-396 -321,-717 -718,-718zm0 1341c-344,0 -622,-279 -622,-623 0,-343 278,-622 622,-622 344,0 623,279 623,622 -1,344 -279,622 -623,623zm0 0z" data-original="#000000" data-old_color="#ffffff"/>
    <path class="fil0" d="M1005 1005l192 0 0 96 -192 0 0 -96zm0 0z" data-original="#000000" data-old_color="#ffffff"/>
    <path class="fil0" d="M1245 1005l96 0 0 96 -96 0 0 -96zm0 0z" data-original="#000000" data-old_color="#ffffff"/>
    <path class="fil0" d="M862 1005l96 0 0 96 -96 0 0 -96zm0 0z" data-original="#000000" data-old_color="#ffffff"/>
   </g>
  </g>
  <circle class="fil1" cx="1101" cy="1053" r="785"/>
  <g id="robbery.svg">
   <g>
    <g>
     <path class="fil0" d="M904 646c-2,-15 -17,-26 -33,-24 -6,1 -13,2 -19,3l-8 -70c-1,-6 -6,-10 -12,-9l-34 2c-10,1 -19,0 -28,-4l-33 -13c-5,-2 -11,1 -13,6l-28 64c-6,-2 -12,-5 -18,-8 -15,-6 -32,0 -39,14 -7,14 -1,32 14,38 11,6 23,11 36,15 -1,4 -2,7 -3,11 -6,42 23,82 66,89 43,6 83,-23 89,-66 1,-4 1,-7 1,-11 13,-1 25,-2 38,-4 16,-2 27,-17 24,-33z"/>
    </g>
   </g>
   <g>
    <g>
     <path class="fil0" d="M1132 838c-14,0 -47,-2 -80,-3l0 -18c0,-4 -4,-8 -9,-8l-18 0c-4,0 -8,4 -8,8 0,6 0,10 0,16 0,0 0,0 -1,0 1,0 -3,0 -5,0 -18,3 -30,21 -25,39l-135 49 -83 -80 61 35 1 -11c5,-31 -15,-59 -44,-64l-68 -11c-12,-2 -26,-2 -39,7l-138 109c-11,8 -16,21 -13,34l38 181c3,16 18,28 34,28 13,0 24,-7 31,-19l20 160 -56 180c-7,24 6,49 30,56 23,7 48,-6 55,-30l58 -189c2,-6 2,-12 2,-18l-18 -146 4 1 56 148 -10 189c-1,24 17,45 42,47 24,1 45,-18 46,-42l11 -199c1,-6 0,-12 -3,-18 -51,-136 -70,-185 -70,-185l8 -59 -86 -134 98 95c9,9 23,12 36,8l173 -63c13,-4 21,-15 23,-28 5,5 12,7 18,4 8,-4 10,-14 7,-21l-7 -11c5,-1 9,-1 13,-1 22,-1 41,-2 51,-2 5,-1 8,-4 8,-9l0 -16c0,-5 -3,-8 -8,-9zm-510 211l-21 -102 42 -33 -21 135z"/>
    </g>
   </g>
   <g>
    <g>
     <path class="fil0" d="M1539 792c-4,-29 -29,-48 -55,-43l-87 16c-26,5 -44,32 -39,61l8 54 18 -2 21 -27 -30 60 -74 8c3,-8 -3,-16 -12,-16l-56 0c-9,0 -15,9 -11,17l6 13c-12,8 -19,22 -17,38 1,9 5,17 11,23 -8,8 -15,16 -22,25 -19,25 -35,53 -35,76 0,57 43,103 96,103 54,0 97,-46 97,-103 0,-20 -12,-43 -27,-64 -7,-11 -16,-21 -24,-31l100 -11c13,-2 25,-10 31,-23 7,-14 59,-118 66,-133l-35 147c-4,21 -22,39 -40,41 -18,2 0,0 -40,5 4,26 -2,-13 13,88l0 368c0,25 20,46 46,46 25,0 46,-21 46,-46l0 -382 35 -7 0 389c0,15 -4,29 -11,41 6,3 12,5 19,5 26,0 46,-21 46,-46l1 -399 -45 -291zm-271 342l0 4c0,2 -3,4 -5,4 -3,0 -5,-2 -5,-4l0 -3c-16,-1 -29,-9 -29,-17 0,-5 4,-11 9,-11 5,0 10,7 20,9l0 -21c-12,-5 -27,-10 -27,-27 0,-17 13,-25 27,-27l0 -4c0,-1 2,-3 5,-3 2,0 5,2 5,3l0 4c8,0 23,2 23,11 0,4 -2,11 -8,11 -4,0 -7,-4 -15,-5l0 19c12,5 25,11 25,29 0,16 -10,26 -25,28z"/>
    </g>
   </g>
   <g>
    <g>
     <circle class="fil0" cx="1349" cy="662" r="78"/>
    </g>
   </g>
   <g>
    <g>
     <path class="fil0" d="M1266 1098l0 18c5,-1 8,-4 8,-8 0,-5 -3,-7 -8,-10z"/>
    </g>
   </g>
   <g>
    <g>
     <path class="fil0" d="M1251 1066c0,4 3,6 8,8l0 -16c-6,2 -8,5 -8,8z"/>
    </g>
   </g>
   <g>
   </g>
   <g>
   </g>
   <g>
   </g>
   <g>
   </g>
   <g>
   </g>
   <g>
   </g>
   <g>
   </g>
   <g>
   </g>
   <g>
   </g>
   <g>
   </g>
   <g>
   </g>
   <g>
   </g>
   <g>
   </g>
   <g>
   </g>
   <g>
   </g>
  </g>
 </g>
</svg>
