<?xml version="1.0" encoding="UTF-8"?>
<!DOCTYPE svg PUBLIC "-//W3C//DTD SVG 1.1//EN" "http://www.w3.org/Graphics/SVG/1.1/DTD/svg11.dtd">
<!-- Creator: CorelDRAW X7 -->
<svg xmlns="http://www.w3.org/2000/svg" xml:space="preserve" width="9.41816in" height="12.489in" version="1.1" style="shape-rendering:geometricPrecision; text-rendering:geometricPrecision; image-rendering:optimizeQuality; fill-rule:evenodd; clip-rule:evenodd"
viewBox="0 0 2202 2921"
 xmlns:xlink="http://www.w3.org/1999/xlink">
 <defs>
  <style type="text/css">
   <![CDATA[
    .fil0 {fill:#333365}
    .fil2 {fill:#FF6600}
    .fil1 {fill:white}
   ]]>
  </style>
 </defs>
 <g id="Layer_x0020_1">
  <metadata id="CorelCorpID_0Corel-Layer"/>
  <g id="_2009863093248">
   <path class="fil0" d="M1065 2831c-239,-278 -1017,-1224 -1017,-1730 0,-582 471,-1053 1053,-1053 582,0 1054,471 1054,1053 0,506 -779,1452 -1017,1730l-37 42 -36 -42zm36 -2448c-370,0 -670,300 -670,670 0,371 300,671 670,671 370,0 671,-300 671,-671 -1,-370 -301,-670 -671,-670zm0 0z" data-original="#78B9EB" data-old_color="#ffffff"/>
   <g>
    <path class="fil0" d="M1101 0c-608,1 -1100,493 -1101,1101 0,593 1022,1754 1065,1803 9,11 22,17 36,17 14,0 27,-6 36,-17 44,-49 1065,-1210 1065,-1803 0,-608 -493,-1100 -1101,-1101zm0 96c555,0 1005,450 1006,1005 0,498 -822,1485 -1006,1698 -183,-213 -1005,-1200 -1005,-1698 0,-555 450,-1005 1005,-1005zm0 0z" data-original="#000000" data-old_color="#ffffff"/>
    <path class="fil0" d="M1101 335c-396,0 -718,322 -718,718 0,397 322,719 718,719 397,0 718,-322 718,-719 0,-396 -321,-717 -718,-718zm0 1341c-344,0 -622,-279 -622,-623 0,-343 278,-622 622,-622 344,0 623,279 623,622 -1,344 -279,622 -623,623zm0 0z" data-original="#000000" data-old_color="#ffffff"/>
    <path class="fil0" d="M1005 1005l192 0 0 96 -192 0 0 -96zm0 0z" data-original="#000000" data-old_color="#ffffff"/>
    <path class="fil0" d="M1245 1005l96 0 0 96 -96 0 0 -96zm0 0z" data-original="#000000" data-old_color="#ffffff"/>
    <path class="fil0" d="M862 1005l96 0 0 96 -96 0 0 -96zm0 0z" data-original="#000000" data-old_color="#ffffff"/>
   </g>
  </g>
  <circle class="fil1" cx="1101" cy="1053" r="785"/>
  <g id="criminal-forcing-car-door.svg">
   <g>
    <g>
     <rect class="fil2" x="1017" y="1237" width="558.169" height="64.1488"/>
     <path class="fil2" d="M1798 993l0 -76 -135 0 0 76 -44 0 -117 -174 -434 0 -107 159 -57 -116 0 0 -7 -16 -17 -35c-1,-6 -4,-11 -9,-15l-21 -42 -12 6 14 28 -46 -13 -52 -50c-7,-28 -28,-53 -58,-62 -45,-14 -94,11 -108,56l-55 174c-4,12 -5,24 -3,36 -2,5 -3,10 -4,15l-3 112 -65 209c-5,14 2,29 16,35 14,5 31,-1 37,-16l85 -208c1,-2 2,-5 2,-7l1 -3 7 -62c0,0 1,0 1,0l50 97 -40 182c-3,15 5,29 19,34 15,4 31,-4 36,-19l60 -192c2,-7 2,-15 -1,-22l-1 -3 -45 -111c5,-8 10,-16 12,-25l25 -77 49 63 3 3c6,8 16,12 27,10l22 -3 22 -3c8,-1 15,-2 22,-2 3,-1 7,-1 10,-1l2 0c2,0 4,1 6,1 14,2 27,-7 29,-20l37 76 0 1 -95 0 0 40 -17 0 0 187 892 0 0 -187 -18 0 0 -40 85 0 0 0zm-935 -86c0,1 0,3 0,5 0,-2 0,-3 0,-5zm31 -24c-3,0 -5,-1 -6,-1 -3,-1 -6,-1 -8,-1 -5,-1 -9,-1 -13,-2 -8,0 -16,-1 -24,-1l-23 -1 -3 0 -27 -38 63 2c8,1 16,-3 21,-9l10 21 16 33c-1,-1 -3,-1 -4,-2 0,0 -2,0 -2,-1zm191 -32l399 0 85 125 -568 0 84 -125zm610 333l-821 0 0 -115 821 0 0 115z"/>
     <rect class="fil2" x="839" y="1242" width="121" height="145"/>
     <polygon class="fil2" points="1131,1079 895,1079 895,1174 1060,1174 "/>
     <rect class="fil2" x="1621" y="1253" width="109" height="145"/>
     <polygon class="fil2" points="1676,1175 1676,1081 1440,1081 1511,1175 "/>
     <circle class="fil2" cx="756" cy="580" r="94"/>
    </g>
   </g>
   <g>
   </g>
   <g>
   </g>
   <g>
   </g>
   <g>
   </g>
   <g>
   </g>
   <g>
   </g>
   <g>
   </g>
   <g>
   </g>
   <g>
   </g>
   <g>
   </g>
   <g>
   </g>
   <g>
   </g>
   <g>
   </g>
   <g>
   </g>
   <g>
   </g>
  </g>
 </g>
</svg>
