<?xml version="1.0" encoding="UTF-8"?>
<!DOCTYPE svg PUBLIC "-//W3C//DTD SVG 1.1//EN" "http://www.w3.org/Graphics/SVG/1.1/DTD/svg11.dtd">
<!-- Creator: CorelDRAW X7 -->
<svg xmlns="http://www.w3.org/2000/svg" xml:space="preserve" width="9.41816in" height="12.489in" version="1.1" style="shape-rendering:geometricPrecision; text-rendering:geometricPrecision; image-rendering:optimizeQuality; fill-rule:evenodd; clip-rule:evenodd"
viewBox="0 0 2202 2921"
 xmlns:xlink="http://www.w3.org/1999/xlink">
 <defs>
  <style type="text/css">
   <![CDATA[
    .fil2 {fill:#65AA4F}
    .fil0 {fill:#7D1810}
    .fil1 {fill:white}
   ]]>
  </style>
 </defs>
 <g id="Layer_x0020_1">
  <metadata id="CorelCorpID_0Corel-Layer"/>
  <g id="_2009934428240">
   <path class="fil0" d="M1065 2831c-239,-278 -1017,-1224 -1017,-1730 0,-582 471,-1053 1053,-1053 582,0 1054,471 1054,1053 0,506 -779,1452 -1017,1730l-37 42 -36 -42zm36 -2448c-370,0 -670,300 -670,670 0,371 300,671 670,671 370,0 671,-300 671,-671 -1,-370 -301,-670 -671,-670zm0 0z" data-original="#78B9EB" data-old_color="#ffffff"/>
   <g>
    <path class="fil0" d="M1101 0c-608,1 -1100,493 -1101,1101 0,593 1022,1754 1065,1803 9,11 22,17 36,17 14,0 27,-6 36,-17 44,-49 1065,-1210 1065,-1803 0,-608 -493,-1100 -1101,-1101zm0 96c555,0 1005,450 1006,1005 0,498 -822,1485 -1006,1698 -183,-213 -1005,-1200 -1005,-1698 0,-555 450,-1005 1005,-1005zm0 0z" data-original="#000000" data-old_color="#ffffff"/>
    <path class="fil0" d="M1101 335c-396,0 -718,322 -718,718 0,397 322,719 718,719 397,0 718,-322 718,-719 0,-396 -321,-717 -718,-718zm0 1341c-344,0 -622,-279 -622,-623 0,-343 278,-622 622,-622 344,0 623,279 623,622 -1,344 -279,622 -623,623zm0 0z" data-original="#000000" data-old_color="#ffffff"/>
    <path class="fil0" d="M1005 1005l192 0 0 96 -192 0 0 -96zm0 0z" data-original="#000000" data-old_color="#ffffff"/>
    <path class="fil0" d="M1245 1005l96 0 0 96 -96 0 0 -96zm0 0z" data-original="#000000" data-old_color="#ffffff"/>
    <path class="fil0" d="M862 1005l96 0 0 96 -96 0 0 -96zm0 0z" data-original="#000000" data-old_color="#ffffff"/>
   </g>
  </g>
  <circle class="fil1" cx="1101" cy="1053" r="785"/>
  <g id="kidnap.svg">
   <g>
    <g>
     <path class="fil2" d="M501 835c-51,22 -74,82 -51,133 9,20 24,35 42,45l59 -89c19,-29 53,-42 85,-35 -22,-53 -83,-78 -135,-54z"/>
    </g>
   </g>
   <g>
    <g>
     <path class="fil2" d="M853 1352c-1,-8 -1,-7 -73,-269 -5,-20 -18,-36 -36,-46 -18,-10 -39,-13 -59,-7l-78 38 49 -75c14,-21 8,-50 -13,-63 -21,-14 -49,-8 -63,13l-134 203c-11,17 -10,39 3,55 13,15 35,20 53,12l138 -60 -59 44 38 128 -84 11c-22,2 -40,18 -46,40 -6,21 2,44 20,58l209 157c24,19 58,14 77,-10 18,-24 13,-59 -11,-77l-101 -76 122 -15c30,-4 52,-31 48,-61z"/>
    </g>
   </g>
   <g>
    <g>
     <path class="fil2" d="M971 900c-7,1 -13,0 -20,-1l20 20c15,14 38,14 52,0 7,-6 10,-14 11,-22l-63 3z"/>
    </g>
   </g>
   <g>
    <g>
     <path class="fil2" d="M967 752l-9 -26c-2,-5 -7,-8 -13,-6l-271 95c-5,2 -8,8 -6,13l5 16c2,5 8,8 13,6l33 -12 9 26c2,5 8,8 13,6l85 -30 31 36c4,4 9,5 14,4l34 -12c-5,-7 -8,-15 -10,-23l-25 8 -19 -22 24 -8 19 19c-1,-4 -1,-7 -1,-11 -3,-37 23,-76 74,-79z"/>
    </g>
   </g>
   <g>
    <g>
     <path class="fil2" d="M1636 798c-1,-58 -48,-105 -106,-105 -53,0 -147,0 -201,0 -27,0 -53,6 -77,18 -25,13 -63,33 -112,61l-176 10c-25,1 -43,22 -42,47 1,25 23,43 47,42l187 -11c6,0 13,-2 19,-6 114,-64 108,-61 117,-64 0,445 -1,54 -1,759 0,29 24,53 54,53 29,0 53,-24 53,-53l0 -428 24 0 0 428c0,29 24,53 53,53 30,0 54,-24 54,-53l0 -751c0,-5 4,-9 9,-9 4,0 8,4 8,9 0,0 0,0 0,0l2 328c0,25 20,45 45,45 0,0 0,0 0,0 25,0 45,-21 44,-45l-1 -328z"/>
    </g>
   </g>
   <g>
    <g>
     <path class="fil2" d="M1499 586c-13,0 -24,-7 -31,-18 -17,8 -37,12 -58,12 -21,0 -41,-4 -59,-12 -6,11 -18,18 -30,18l-5 0c6,46 46,82 94,82 47,0 87,-36 93,-82l-4 0z"/>
    </g>
   </g>
   <g>
    <g>
     <path class="fil2" d="M1520 550c-4,-20 -13,-71 -13,-73 0,-41 -43,-75 -97,-75 -52,0 -94,31 -97,70l-1 0 -13 78c-1,4 2,8 7,8l15 0c2,0 5,-1 6,-3l13 -25c18,14 42,23 70,23 27,0 52,-9 69,-23l13 25c1,2 4,3 7,3l14 0c5,0 8,-4 7,-8z"/>
    </g>
   </g>
   <g>
   </g>
   <g>
   </g>
   <g>
   </g>
   <g>
   </g>
   <g>
   </g>
   <g>
   </g>
   <g>
   </g>
   <g>
   </g>
   <g>
   </g>
   <g>
   </g>
   <g>
   </g>
   <g>
   </g>
   <g>
   </g>
   <g>
   </g>
   <g>
   </g>
  </g>
 </g>
</svg>
