<?xml version="1.0" encoding="UTF-8"?>
<!DOCTYPE svg PUBLIC "-//W3C//DTD SVG 1.1//EN" "http://www.w3.org/Graphics/SVG/1.1/DTD/svg11.dtd">
<!-- Creator: CorelDRAW X7 -->
<svg xmlns="http://www.w3.org/2000/svg" xml:space="preserve" width="9.41816in" height="12.489in" version="1.1" style="shape-rendering:geometricPrecision; text-rendering:geometricPrecision; image-rendering:optimizeQuality; fill-rule:evenodd; clip-rule:evenodd"
viewBox="0 0 2202 2921"
 xmlns:xlink="http://www.w3.org/1999/xlink">
 <defs>
  <style type="text/css">
   <![CDATA[
    .fil0 {fill:#1D1F1E}
    .fil5 {fill:#3762CC}
    .fil4 {fill:#4671C6}
    .fil3 {fill:#6BDDDD}
    .fil6 {fill:#A4C9FF}
    .fil7 {fill:#E0EBFC}
    .fil8 {fill:#F9A7A7}
    .fil2 {fill:#F9CFCF}
    .fil1 {fill:white}
   ]]>
  </style>
 </defs>
 <g id="Layer_x0020_1">
  <metadata id="CorelCorpID_0Corel-Layer"/>
  <g id="_2009931934736">
   <path class="fil0" d="M1065 2831c-239,-278 -1017,-1224 -1017,-1730 0,-582 471,-1053 1053,-1053 582,0 1054,471 1054,1053 0,506 -779,1452 -1017,1730l-37 42 -36 -42zm36 -2448c-370,0 -670,300 -670,670 0,371 300,671 670,671 370,0 671,-300 671,-671 -1,-370 -301,-670 -671,-670zm0 0z" data-original="#78B9EB" data-old_color="#ffffff"/>
   <g>
    <path class="fil0" d="M1101 0c-608,1 -1100,493 -1101,1101 0,593 1022,1754 1065,1803 9,11 22,17 36,17 14,0 27,-6 36,-17 44,-49 1065,-1210 1065,-1803 0,-608 -493,-1100 -1101,-1101zm0 96c555,0 1005,450 1006,1005 0,498 -822,1485 -1006,1698 -183,-213 -1005,-1200 -1005,-1698 0,-555 450,-1005 1005,-1005zm0 0z" data-original="#000000" data-old_color="#ffffff"/>
    <path class="fil0" d="M1101 335c-396,0 -718,322 -718,718 0,397 322,719 718,719 397,0 718,-322 718,-719 0,-396 -321,-717 -718,-718zm0 1341c-344,0 -622,-279 -622,-623 0,-343 278,-622 622,-622 344,0 623,279 623,622 -1,344 -279,622 -623,623zm0 0z" data-original="#000000" data-old_color="#ffffff"/>
    <path class="fil0" d="M1005 1005l192 0 0 96 -192 0 0 -96zm0 0z" data-original="#000000" data-old_color="#ffffff"/>
    <path class="fil0" d="M1245 1005l96 0 0 96 -96 0 0 -96zm0 0z" data-original="#000000" data-old_color="#ffffff"/>
    <path class="fil0" d="M862 1005l96 0 0 96 -96 0 0 -96zm0 0z" data-original="#000000" data-old_color="#ffffff"/>
   </g>
  </g>
  <circle class="fil1" cx="1101" cy="1053" r="785"/>
  <g id="rape.svg">
   <path class="fil2" d="M1491 1063l-40 -84c-15,-32 -22,-67 -22,-102 0,-7 0,-14 1,-21l1 -9 73 -321 -805 0 73 322 1 8c1,7 1,14 1,21 0,35 -8,70 -22,103l-40 84c-44,95 -67,199 -67,304l0 109c0,67 6,133 17,199l406 0 26 -140c1,-3 3,-6 7,-6 4,0 6,3 7,6l27 140 405 0c12,-66 18,-133 18,-200l0 -108c0,-105 -23,-209 -67,-305zm0 0z"/>
   <path class="fil3" d="M1430 848l74 -322 -805 0 73 322 1 8c1,7 1,14 1,21 0,35 -8,70 -22,103l-40 84c-9,21 -18,42 -26,64l831 0c-8,-22 -16,-43 -26,-64l-40 -84c-15,-33 -22,-68 -22,-103 0,-7 0,-13 1,-21l0 -8zm0 0z"/>
   <path class="fil4" d="M645 1368l0 109c0,67 6,133 17,199l406 0 26 -140c1,-3 3,-6 7,-6 4,0 6,3 7,6l27 140 405 0c12,-66 18,-133 18,-200l0 -108c0,-82 -14,-163 -41,-240l-831 0c-27,77 -41,158 -41,240zm0 0z"/>
   <path class="fil5" d="M1540 1686l-405 0c-5,0 -9,-4 -10,-8l-24 -128 -24 128c-1,4 -5,8 -9,8l-406 0c-5,0 -9,-4 -10,-8 -12,-66 -17,-134 -17,-201l0 -109c0,-106 23,-213 68,-308l39 -85c15,-30 22,-64 22,-98 0,-7 0,-13 -1,-20l0 -7 -73 -322c-1,-2 0,-5 2,-8 1,-2 4,-3 7,-3l805 0c2,0 5,1 7,4 2,2 3,5 2,8l-73 321 -1 7c0,7 -1,13 -1,20 0,34 8,68 22,98l39 85c45,95 69,202 69,308l0 109c0,67 -6,135 -18,201 -1,4 -5,8 -10,8l0 0zm-397 -20l389 0c11,-62 16,-126 16,-190l0 -108c0,-103 -23,-207 -67,-301l-39 -84c-15,-33 -23,-70 -23,-106 0,-8 0,-15 1,-21l1 -9c0,-1 0,-2 0,-3l71 -308 -781 0 71 309 0 2 1 9c0,7 1,14 1,21 0,36 -8,73 -24,106l-40 85c-43,93 -66,197 -66,300l0 109c0,63 5,127 16,190l389 0 25 -133c1,-7 9,-13 16,-13 8,0 15,6 17,13l26 132zm0 0z"/>
   <path class="fil2" d="M1342 1294l-151 -112 -46 -47c-5,-4 -2,-12 5,-12l67 -3c35,4 65,-21 68,-55 1,-10 -6,-18 -16,-19l-52 -7 -243 -48c-1,0 -2,0 -4,0l0 0c-15,-3 -31,-3 -46,1l-398 -439 0 385 235 212c-9,32 -5,66 13,94l1 1c1,1 1,2 2,3l123 183 63 97c12,20 39,25 57,10 16,-11 19,-34 9,-51l-48 -80c-2,-5 -2,-11 2,-16 6,-5 15,-4 20,2l113 151c13,18 40,21 58,5 14,-14 15,-36 3,-52l-121 -163c-4,-5 -4,-12 1,-16 5,-6 14,-6 18,0l167 166c16,16 43,15 57,-4 13,-16 10,-38 -4,-52l-165 -165c-5,-5 -5,-13 0,-18 4,-4 11,-5 17,-2l150 113c19,13 46,8 58,-13 8,-16 2,-38 -13,-49l0 0zm0 0z"/>
   <path class="fil5" d="M1146 1570c-1,0 -3,0 -4,0 -13,-1 -26,-8 -34,-19l-113 -151c-1,-1 -2,-2 -3,-2 0,0 -1,0 -2,1 -1,1 -1,3 0,4l47 79c13,22 8,50 -11,65 -11,8 -25,12 -39,9 -13,-2 -25,-11 -32,-22l-64 -98 -123 -182c-1,-1 -1,-2 -2,-4l0 0c0,-1 -1,-1 -1,-1 -17,-29 -23,-63 -15,-96l-230 -208c-2,-2 -3,-4 -3,-7l0 -385c0,-4 2,-8 6,-9 4,-2 8,-1 11,2l393 435c15,-3 30,-3 44,0l1 0c1,0 2,0 3,0l1 0 243 49 52 6c15,2 26,15 24,30 -2,19 -11,36 -26,48 -15,12 -33,17 -52,15l-62 3 42 42 150 112c20,15 26,42 15,62 -6,13 -18,21 -32,25 -14,3 -28,0 -39,-9l-151 -112c-1,-1 -2,-1 -4,1 -1,1 -1,3 0,4l165 165c18,18 21,46 6,65 -9,11 -22,17 -36,18 -14,1 -27,-4 -37,-13l-166 -167c-1,-1 -3,-1 -5,0 -1,1 -1,3 0,5l121 162c15,20 13,48 -4,65 -9,8 -21,13 -34,13l0 0zm-154 -191l1 0c7,0 13,4 17,9l113 151c5,7 12,11 21,12 8,0 16,-2 22,-8 11,-10 12,-27 3,-40l-121 -162c-7,-9 -6,-22 1,-30 9,-8 23,-8 33,0l166 167c6,5 14,9 22,8 9,0 16,-4 21,-11 9,-12 8,-29 -3,-39l-165 -166c-9,-8 -9,-23 0,-31 7,-8 20,-9 29,-2l150 112c7,5 16,7 24,5 8,-2 15,-7 19,-15 7,-12 3,-28 -9,-38l-150 -112c0,0 0,0 -1,-1l-46 -46c-5,-5 -7,-12 -4,-18 2,-7 8,-11 15,-11l67 -3 2 0c13,2 27,-2 38,-11 11,-8 18,-21 19,-35 1,-4 -3,-8 -8,-9l-52 -6c0,0 0,0 -1,0l-244 -49c-1,0 -2,0 -2,0 0,0 0,0 -1,0 -14,-3 -28,-2 -43,1 -3,1 -6,-1 -9,-3l-380 -420 0 356 231 209c3,2 4,6 3,9 -8,30 -4,62 12,87l0 1c1,1 2,2 3,3l122 182 64 98c4,7 11,12 20,14 8,1 16,-1 23,-6 12,-9 14,-26 6,-39l-47 -80c-5,-9 -4,-20 3,-27 4,-4 10,-6 16,-6l0 0zm0 0z"/>
   <path class="fil6" d="M1216 971l0 -279 -58 -152c-3,-8 5,-15 12,-13l160 62 269 0c42,0 77,34 77,76l0 307c0,42 -35,77 -77,77l-306 0c-42,-1 -77,-35 -77,-78zm0 0z"/>
   <path class="fil7" d="M1605 638l-306 0c-16,0 -29,13 -29,29l0 306c0,16 13,29 29,29l306 0c16,0 29,-13 29,-29l0 -306c0,-16 -13,-29 -29,-29l0 0zm0 0z"/>
   <path class="fil5" d="M1599 1058l-306 0c-48,0 -86,-39 -86,-87l0 -277 -58 -151c-3,-7 -1,-15 4,-21 5,-5 13,-7 21,-4l158 61 267 0c48,0 87,38 87,86l0 306c0,48 -39,87 -87,87zm-432 -522l58 152c1,1 1,3 1,4l0 279c0,37 30,67 67,67l306 0c37,0 67,-30 67,-67l0 -306c0,-37 -30,-67 -67,-67l-269 0c-1,0 -2,0 -3,-1l-160 -61zm0 0z"/>
   <path class="fil8" d="M1610 820c0,87 -71,158 -158,158 -87,0 -158,-71 -158,-158 0,-87 71,-158 158,-158 87,0 158,71 158,158zm0 0z"/>
   <g>
    <path class="fil5" d="M1496 917c-5,0 -10,-4 -10,-9 0,-8 -12,-17 -30,-17 -18,0 -30,9 -30,17 0,5 -4,9 -10,9 -5,0 -9,-4 -9,-9 0,-20 21,-36 49,-36 28,0 49,16 49,36 0,5 -3,9 -9,9l0 0zm0 0z"/>
    <path class="fil5" d="M1357 837c-3,0 -7,-2 -9,-5 -2,-5 0,-11 5,-13l32 -16 -37 -18c-4,-3 -6,-9 -4,-13 2,-5 8,-7 13,-5l53 28c3,1 5,4 5,8 0,4 -2,7 -5,9l-49 24c-1,1 -3,1 -4,1l0 0zm0 0z"/>
    <path class="fil5" d="M1546 837c-1,0 -3,0 -4,-1l-49 -24c-4,-1 -6,-4 -6,-8 0,-4 2,-7 6,-9l53 -27c4,-3 10,-1 13,4 2,5 0,11 -5,13l-36 19 32 16c5,2 7,8 4,13 -1,2 -4,4 -8,4l0 0zm0 0z"/>
   </g>
  </g>
 </g>
</svg>
