<?xml version="1.0" encoding="UTF-8"?>
<!DOCTYPE svg PUBLIC "-//W3C//DTD SVG 1.1//EN" "http://www.w3.org/Graphics/SVG/1.1/DTD/svg11.dtd">
<!-- Creator: CorelDRAW X7 -->
<svg xmlns="http://www.w3.org/2000/svg" xml:space="preserve" width="9.41816in" height="12.489in" version="1.1" style="shape-rendering:geometricPrecision; text-rendering:geometricPrecision; image-rendering:optimizeQuality; fill-rule:evenodd; clip-rule:evenodd"
viewBox="0 0 2202 2921"
 xmlns:xlink="http://www.w3.org/1999/xlink">
 <defs>
  <style type="text/css">
   <![CDATA[
    .fil0 {fill:#036802}
    .fil5 {fill:#287D99}
    .fil3 {fill:#38648C}
    .fil7 {fill:#76B7EB}
    .fil2 {fill:#7FDBD5}
    .fil8 {fill:#D1EFF2}
    .fil4 {fill:#F28B74}
    .fil1 {fill:white}
    .fil6 {fill:black;fill-opacity:0.101961}
   ]]>
  </style>
 </defs>
 <g id="Layer_x0020_1">
  <metadata id="CorelCorpID_0Corel-Layer"/>
  <g id="_2009933036320">
   <path class="fil0" d="M1065 2831c-239,-278 -1017,-1224 -1017,-1730 0,-582 471,-1053 1053,-1053 582,0 1054,471 1054,1053 0,506 -779,1452 -1017,1730l-37 42 -36 -42zm36 -2448c-370,0 -670,300 -670,670 0,371 300,671 670,671 370,0 671,-300 671,-671 -1,-370 -301,-670 -671,-670zm0 0z" data-original="#78B9EB" data-old_color="#ffffff"/>
   <g>
    <path class="fil0" d="M1101 0c-608,1 -1100,493 -1101,1101 0,593 1022,1754 1065,1803 9,11 22,17 36,17 14,0 27,-6 36,-17 44,-49 1065,-1210 1065,-1803 0,-608 -493,-1100 -1101,-1101zm0 96c555,0 1005,450 1006,1005 0,498 -822,1485 -1006,1698 -183,-213 -1005,-1200 -1005,-1698 0,-555 450,-1005 1005,-1005zm0 0z" data-original="#000000" data-old_color="#ffffff"/>
    <path class="fil0" d="M1101 335c-396,0 -718,322 -718,718 0,397 322,719 718,719 397,0 718,-322 718,-719 0,-396 -321,-717 -718,-718zm0 1341c-344,0 -622,-279 -622,-623 0,-343 278,-622 622,-622 344,0 623,279 623,622 -1,344 -279,622 -623,623zm0 0z" data-original="#000000" data-old_color="#ffffff"/>
    <path class="fil0" d="M1005 1005l192 0 0 96 -192 0 0 -96zm0 0z" data-original="#000000" data-old_color="#ffffff"/>
    <path class="fil0" d="M1245 1005l96 0 0 96 -96 0 0 -96zm0 0z" data-original="#000000" data-old_color="#ffffff"/>
    <path class="fil0" d="M862 1005l96 0 0 96 -96 0 0 -96zm0 0z" data-original="#000000" data-old_color="#ffffff"/>
   </g>
  </g>
  <circle class="fil1" cx="1101" cy="1053" r="785"/>
  <g id="drug1.svg">
   <circle class="fil2" cx="1022" cy="1469" r="40"/>
   <g>
    <circle class="fil3" cx="1187" cy="1514" r="38"/>
    <circle class="fil3" cx="1071" cy="1296" r="38"/>
   </g>
   <circle class="fil2" cx="1216" cy="1366" r="47"/>
   <circle class="fil4" cx="1071" cy="1630" r="51"/>
   <path class="fil2" d="M861 608l-172 154 218 245 172 -154c68,-60 74,-163 14,-231l0 0c-60,-68 -164,-74 -232,-14z"/>
   <path class="fil5" d="M517 915l172 -153 218 245 -172 153c-68,60 -171,54 -232,-13l0 0c-60,-68 -54,-172 14,-232z"/>
   <path class="fil6" d="M1093 622c-34,-38 -82,-57 -130,-55 -13,44 -9,93 18,135l54 87c9,15 6,35 -7,46 -102,85 -232,177 -300,204 -104,43 -195,-65 -180,-152l-29 27c-68,59 -76,163 -17,231 60,69 165,76 233,15l344 -307c68,-60 74,-163 14,-231l0 0z"/>
   <path class="fil7" d="M1023 649l122 195 278 -173 -122 -196c-48,-77 -149,-100 -226,-52l0 0c-77,48 -100,149 -52,226z"/>
   <path class="fil8" d="M1267 1040l-122 -196 278 -173 122 195c48,77 25,178 -52,226l0 0c-77,48 -178,25 -226,-52z"/>
   <path class="fil6" d="M1493 1092c7,-4 14,-10 21,-15 -195,-29 -450,-494 -438,-655 0,0 -1,1 -1,1l0 0c-77,48 -100,149 -52,226l244 391c48,77 149,100 226,52l0 0z"/>
   <path class="fil4" d="M796 1291l199 82c8,3 16,0 19,-7l115 -277c3,-7 -1,-16 -8,-19l-200 -82c-84,-35 -179,5 -214,88l0 0c-35,84 5,180 89,215z"/>
   <path class="fil6" d="M1014 1366l28 -68c-235,-45 -315,-185 -296,-278 -17,15 -30,34 -39,56l0 0c-35,84 5,180 89,215l199 82c8,3 16,0 19,-7z"/>
   <path class="fil7" d="M1464 1291l-199 82c-8,3 -16,0 -19,-7l-115 -277c-3,-7 1,-16 8,-19l200 -82c83,-35 179,5 214,88l0 0c35,84 -5,180 -89,215z"/>
   <g>
   </g>
   <g>
   </g>
   <g>
   </g>
   <g>
   </g>
   <g>
   </g>
   <g>
   </g>
   <g>
   </g>
   <g>
   </g>
   <g>
   </g>
   <g>
   </g>
   <g>
   </g>
   <g>
   </g>
   <g>
   </g>
   <g>
   </g>
   <g>
   </g>
  </g>
 </g>
</svg>
